<svg width="63" height="62" viewBox="0 0 63 62" fill="none" xmlns="http://www.w3.org/2000/svg">
<g clip-path="url(#clip0)">
<path d="M31.4054 0C14.4153 0 0.592712 13.8648 0.592712 30.9066C0.592712 47.9485 14.4153 61.8133 31.4054 61.8133C48.3955 61.8133 62.2181 47.9485 62.2181 30.9066C62.2181 13.8648 48.3957 0 31.4054 0ZM16.3168 46.0986C15.9701 46.3341 15.0996 46.5412 14.5903 45.9741L13.6507 44.7887C13.1963 44.018 13.7466 43.3032 14.1029 43.0068C15.7969 41.5973 17.0287 40.507 17.7973 39.7358C19.3045 38.1459 20.4187 36.5544 21.1544 34.9676C21.3226 34.6049 20.8932 34.3746 20.6702 34.3013C15.1156 32.4753 12.3375 29.2561 12.3375 24.6445C12.3375 21.9274 13.2372 19.7195 15.0356 18.0222C16.8348 16.3239 19.0886 15.4752 21.7965 15.4752C24.2088 15.4752 26.3464 16.5787 28.2082 18.7864C30.0284 20.8658 30.9379 23.1163 30.9379 25.536C30.9381 32.6275 26.0646 39.4814 16.3168 46.0986ZM37.4566 46.0986C37.1099 46.3341 36.2394 46.5412 35.7301 45.9741L34.7905 44.7887C34.3361 44.018 34.8864 43.3032 35.2427 43.0068C36.9365 41.5973 38.1685 40.507 38.9371 39.7358C40.4443 38.1459 41.5585 36.5544 42.2944 34.9676C42.4626 34.6049 42.0332 34.3746 41.8102 34.3013C36.2556 32.4753 33.4775 29.2561 33.4775 24.6445C33.4775 21.9274 34.3772 19.7195 36.1756 18.0222C37.975 16.3239 40.2286 15.4752 42.9365 15.4752C45.3488 15.4752 47.4864 16.5787 49.3482 18.7864C51.1683 20.8658 52.0779 23.1163 52.0779 25.536C52.0779 32.6275 47.2044 39.4814 37.4566 46.0986Z" fill="white"/>
</g>
<defs>
<clipPath id="clip0">
<rect width="61.6254" height="61.8133" fill="white" transform="translate(0.592712)"/>
</clipPath>
</defs>
</svg>
