<svg width="134" height="112" viewBox="0 0 134 112" fill="none" xmlns="http://www.w3.org/2000/svg">
<path d="M0 10C0 4.47715 4.47715 0 10 0H124C129.523 0 134 4.47715 134 10V102C134 107.523 129.523 112 124 112H10C4.47715 112 0 107.523 0 102V10Z" fill="url(#paint0_linear)"/>
<path d="M101.99 32.9299C101.99 30.527 101.052 30.2119 99.9069 30.2119C98.762 30.2119 97.3043 30.2119 97.3043 30.2119C95.323 30.2119 93.9362 30.9308 92.98 31.8338C91.4402 27.9089 86.8429 18 79.5766 18H53.6861C46.4175 18 41.8159 27.9089 40.2761 31.8338C39.3198 30.9308 37.9331 30.2119 35.9562 30.2119C35.9562 30.2119 34.4962 30.2119 33.3492 30.2119C32.2065 30.2119 31.2702 30.527 31.2702 32.9299C31.2702 34.9556 32.0268 36.0184 35.6411 36.2979C34.2078 37.8089 33.0652 39.8501 33.0652 42.5237C33.0652 49.7191 33.0652 51.2345 33.0652 54.2653C33.0652 56.606 33.3092 60.3091 37.0855 61.8622V66.0024C37.0855 67.256 38.0973 68.2766 39.3464 68.2766H48.5897C49.8388 68.2766 50.8506 67.256 50.8506 66.0024V62.5966C58.5141 62.5966 66.628 62.5966 66.628 62.5966C66.628 62.5966 74.7419 62.5966 82.4099 62.5966V66.0024C82.4099 67.256 83.4216 68.2766 84.6708 68.2766H93.9096C95.1588 68.2766 96.1749 67.256 96.1749 66.0024V61.8622C99.9512 60.3069 100.195 56.606 100.195 54.2653C100.195 51.2345 100.195 49.7191 100.195 42.5237C100.195 39.8524 99.0527 37.8089 97.6193 36.2979C101.234 36.0162 101.99 34.9556 101.99 32.9299ZM94.522 43.216C96.0773 45.1707 95.9131 47.629 93.0731 47.629C90.6126 47.629 86.0708 47.629 83.7988 47.629C81.5291 47.629 81.9018 44.4163 87.016 42.4261C89.4078 41.492 93.1486 41.4876 94.522 43.216ZM85.3675 57.4958C85.9932 56.6127 87.1158 55.4545 88.6756 55.4545C90.3863 55.4545 91.7552 55.4545 92.8491 55.4545C94.7727 55.4545 92.1657 58.4809 90.526 58.4809C89.3767 58.4809 87.0337 58.4809 85.7225 58.4809C84.8039 58.4809 84.9792 58.0416 85.3675 57.4958ZM53.6839 21.4102H79.5743C84.4312 21.4102 88.5025 29.5641 90.0135 33.5733C89.958 33.6554 89.9004 33.722 89.8449 33.7974C82.0039 37.5293 69.732 37.2209 66.628 37.2209C63.5284 37.2209 51.2566 37.5271 43.4156 33.7952C43.3601 33.722 43.3024 33.6554 43.2492 33.5733C44.7579 29.5641 48.8271 21.4102 53.6839 21.4102ZM46.2467 42.4283C51.3542 44.4185 51.7336 47.6312 49.4616 47.6312C47.1896 47.6312 42.6479 47.6312 40.1829 47.6312C37.3473 47.6312 37.1876 45.1729 38.734 43.2204C40.1141 41.4876 43.8482 41.492 46.2467 42.4283ZM40.407 55.4545C41.5052 55.4545 42.8653 55.4545 44.5804 55.4545C46.1468 55.4545 47.2629 56.6127 47.893 57.4958C48.279 58.0416 48.4521 58.4809 47.5358 58.4809C46.2245 58.4809 43.8793 58.4809 42.7344 58.4809C41.0948 58.4809 38.4833 55.4545 40.407 55.4545ZM77.2957 58.4809C74.3204 58.4809 66.628 58.4809 66.628 58.4809C66.628 58.4809 58.9356 58.4809 55.967 58.4809C52.9916 58.4809 55.4434 55.0596 58.7648 55.0596C62.0818 55.0596 66.6258 55.0596 66.6258 55.0596C66.6258 55.0596 71.1675 55.0596 74.4912 55.0596C77.8127 55.0618 80.2622 58.4809 77.2957 58.4809ZM55.6253 50.0208H77.6329C76.9119 50.7397 76.0488 51.23 75.1169 51.23C71.5292 51.23 66.6258 51.23 66.6258 51.23C66.6258 51.23 61.7268 51.23 58.1391 51.23C57.2117 51.23 56.3486 50.7397 55.6253 50.0208ZM78.8688 48.3124H54.3917C54.1676 47.8775 53.9923 47.4293 53.868 46.99H79.3946C79.2704 47.4293 79.0929 47.8775 78.8688 48.3124ZM53.7305 45.2838C53.8592 44.5649 54.2896 44.0746 55.1283 44.0746C58.3277 44.0746 66.628 44.0746 66.628 44.0746C66.628 44.0746 74.9261 44.0746 78.1322 44.0746C78.9709 44.0746 79.3968 44.5649 79.5255 45.2838H53.7305Z" fill="white"/>
<path d="M39.4529 79.9161H29.0559V64.6689H35.0864V62.7963C33.1095 61.6825 32.171 60.0806 31.6962 58.6362H29.0559V36.2891H25V90.6592C25 91.9505 26.045 93 27.3363 93H39.4506C40.7397 93 41.787 91.9505 41.787 90.6592V82.2591C41.7892 80.97 40.7442 79.9161 39.4529 79.9161Z" fill="white"/>
<path d="M104.205 36.2891V58.6384H101.555C101.087 60.085 100.144 61.6847 98.1718 62.7985V64.6712H104.202V79.9183H93.8009C92.5162 79.9183 91.469 80.97 91.469 82.2591V90.6592C91.469 91.9505 92.5162 93 93.8009 93H105.92C107.211 93 108.251 91.9505 108.251 90.6592V36.2891H104.205Z" fill="white"/>
<defs>
<linearGradient id="paint0_linear" x1="-1.86233e-06" y1="5.86667" x2="108.47" y2="133.668" gradientUnits="userSpaceOnUse">
<stop stop-color="#C20000"/>
<stop offset="0.412274" stop-color="#DC3D3D"/>
<stop offset="0.846333" stop-color="#E85555"/>
</linearGradient>
</defs>
</svg>
