<svg width="24" height="24" viewBox="0 0 24 24" fill="none" xmlns="http://www.w3.org/2000/svg">
<g clip-path="url(#clip0)">
<path d="M20.2904 3.41044C15.5823 -1.13681 8.1181 -1.13681 3.40997 3.41044C-1.25146 8.23678 -1.11777 15.9281 3.70858 20.5895C8.41671 25.1368 15.8809 25.1368 20.5891 20.5895C25.2505 15.7632 25.1168 8.07187 20.2904 3.41044ZM20.018 20.0185L20.014 20.0145C15.5837 24.4407 8.40404 24.4375 3.97776 20.0072C-0.448515 15.5768 -0.44524 8.39724 3.98507 3.97096C8.41538 -0.455313 15.595 -0.452039 20.0213 3.97822C22.1474 6.10625 23.3408 8.99184 23.3389 12C23.3391 15.0074 22.1445 17.8918 20.018 20.0185Z" fill="white"/>
<path d="M18.8238 15.4585L16.5478 13.1906C16.0313 12.6729 15.1928 12.6719 14.675 13.1884C14.6743 13.1892 14.6735 13.1899 14.6728 13.1906L13.3688 14.4946C13.2701 14.5936 13.1146 14.6072 13.0003 14.5271C12.2865 14.0283 11.6184 13.4672 11.0038 12.8505C10.4532 12.3012 9.94681 11.7095 9.48913 11.0807C9.40617 10.9678 9.41823 10.8111 9.51746 10.7122L10.8539 9.37577C11.3698 8.85881 11.3698 8.02174 10.8539 7.50478L8.57793 5.22883C8.05347 4.72743 7.22737 4.72743 6.70291 5.22883L5.98207 5.94967C4.89343 7.02607 4.50479 8.62436 4.97771 10.0804C5.33061 11.1457 5.82944 12.157 6.45992 13.0853C7.02752 13.9364 7.6787 14.7287 8.40381 15.4504C9.19214 16.2444 10.0654 16.9492 11.0078 17.5522C12.0438 18.2283 13.1813 18.7341 14.3772 19.0506C14.6846 19.1264 15.0001 19.1645 15.3167 19.164C16.4021 19.1574 17.4405 18.7205 18.2042 17.9491L18.8238 17.3295C19.3397 16.8125 19.3397 15.9755 18.8238 15.4585ZM18.2503 16.7771C18.2498 16.7777 18.2492 16.7782 18.2487 16.7788L18.2527 16.7666L17.6331 17.3862C16.837 18.1924 15.6775 18.5241 14.5755 18.261C13.4652 17.9638 12.4097 17.4907 11.4491 16.8598C10.5566 16.2894 9.7295 15.6226 8.9828 14.8713C8.29575 14.1893 7.67851 13.4404 7.14014 12.6359C6.55128 11.7701 6.08519 10.827 5.75512 9.83341C5.37674 8.66613 5.6903 7.38528 6.56509 6.52477L7.28593 5.80393C7.48635 5.60261 7.81201 5.6019 8.01328 5.80231C8.0138 5.80284 8.01437 5.80336 8.01489 5.80393L10.2908 8.07988C10.4922 8.28029 10.4929 8.60595 10.2925 8.80722C10.2919 8.80774 10.2914 8.80826 10.2908 8.80883L8.95442 10.1453C8.57096 10.5245 8.52274 11.1273 8.84104 11.5627C9.3244 12.2261 9.8593 12.8503 10.4407 13.4296C11.0889 14.0807 11.7936 14.6729 12.5466 15.1994C12.9816 15.5028 13.5714 15.4517 13.9478 15.0779L15.2396 13.7658C15.44 13.5645 15.7657 13.5638 15.967 13.7642C15.9675 13.7647 15.968 13.7652 15.9686 13.7658L18.2486 16.0499C18.45 16.2502 18.4507 16.5758 18.2503 16.7771Z" fill="white"/>
</g>
<defs>
<clipPath id="clip0">
<rect width="24" height="24" fill="white"/>
</clipPath>
</defs>
</svg>
