<svg width="29" height="29" viewBox="0 0 29 29" fill="none" xmlns="http://www.w3.org/2000/svg">
<path d="M27.9171 20.7801H11.767C10.7955 20.776 9.85437 20.4455 9.09875 19.8429C8.34313 19.2404 7.81814 18.4018 7.61031 17.4654L4.13547 1.49847H0.75936C0.557965 1.49847 0.364818 1.41953 0.222411 1.27903C0.0800032 1.13852 0 0.947945 0 0.749236C0 0.550526 0.0800032 0.359956 0.222411 0.219447C0.364818 0.078938 0.557965 3.34295e-08 0.75936 3.34295e-08H4.7498C4.92353 -5.11534e-05 5.09203 0.0586816 5.22719 0.166398C5.36234 0.274114 5.45597 0.424299 5.49245 0.591897L9.09561 17.15C9.22937 17.7518 9.56693 18.2907 10.0527 18.6779C10.5384 19.0651 11.1434 19.2775 11.7678 19.2801H27.9171C28.1185 19.2801 28.3117 19.359 28.4541 19.4995C28.5965 19.64 28.6765 19.8306 28.6765 20.0293C28.6765 20.228 28.5965 20.4186 28.4541 20.5591C28.3117 20.6996 28.1185 20.7786 27.9171 20.7786V20.7801Z" fill="white"/>
<path d="M24.0188 15.7928H7.90494C7.70678 15.7928 7.51674 15.7139 7.37662 15.5735C7.2365 15.433 7.15779 15.2425 7.15779 15.0439C7.15779 14.8453 7.2365 14.6548 7.37662 14.5143C7.51674 14.3739 7.70678 14.295 7.90494 14.295H24.0188C24.3776 14.2969 24.7252 14.1693 24.9979 13.9355C25.2706 13.7017 25.4503 13.3774 25.5041 13.0218L26.6421 5.65387H5.73446C5.5363 5.65387 5.34626 5.57497 5.20614 5.43451C5.06602 5.29406 4.9873 5.10357 4.9873 4.90495C4.9873 4.70632 5.06602 4.51583 5.20614 4.37538C5.34626 4.23492 5.5363 4.15602 5.73446 4.15602H27.514C27.6217 4.15605 27.7282 4.17944 27.8261 4.2246C27.924 4.26975 28.011 4.33561 28.0812 4.41763C28.1513 4.49966 28.2029 4.59593 28.2324 4.69982C28.2619 4.80371 28.2687 4.91278 28.2522 5.01953L26.982 13.251C26.8749 13.9607 26.5165 14.6081 25.9725 15.0748C25.4284 15.5415 24.7349 15.7964 24.0188 15.7928Z" fill="white"/>
<path d="M23.8963 28.2609C23.2798 28.2607 22.6773 28.0778 22.1648 27.7352C21.6523 27.3926 21.2529 26.9057 21.0171 26.3362C20.7813 25.7666 20.7197 25.1399 20.84 24.5353C20.9604 23.9307 21.2573 23.3754 21.6933 22.9395C22.1292 22.5037 22.6846 22.2069 23.2892 22.0867C23.8938 21.9665 24.5205 22.0283 25.09 22.2642C25.6596 22.5001 26.1463 22.8997 26.4888 23.4122C26.8313 23.9248 27.014 24.5274 27.014 25.1439C27.013 25.9704 26.6842 26.7627 26.0997 27.3471C25.5152 27.9314 24.7228 28.2601 23.8963 28.2609ZM23.8963 23.5522C23.5817 23.5523 23.2741 23.6458 23.0126 23.8207C22.7511 23.9956 22.5473 24.2441 22.427 24.5348C22.3067 24.8255 22.2753 25.1454 22.3368 25.4539C22.3982 25.7625 22.5498 26.0459 22.7723 26.2683C22.9949 26.4908 23.2784 26.6422 23.5869 26.7035C23.8955 26.7648 24.2154 26.7333 24.506 26.6129C24.7967 26.4924 25.0451 26.2885 25.2199 26.0269C25.3947 25.7653 25.488 25.4577 25.488 25.1431C25.4874 24.7212 25.3194 24.3168 25.0211 24.0185C24.7227 23.7203 24.3182 23.5526 23.8963 23.5522Z" fill="white"/>
<path d="M13.5071 28.2609C12.8907 28.2609 12.288 28.0781 11.7754 27.7356C11.2628 27.3931 10.8633 26.9062 10.6274 26.3367C10.3915 25.7671 10.3298 25.1404 10.45 24.5358C10.5703 23.9311 10.8672 23.3757 11.3031 22.9398C11.739 22.5039 12.2944 22.207 12.899 22.0867C13.5037 21.9665 14.1304 22.0282 14.7 22.2641C15.2695 22.5 15.7563 22.8996 16.0988 23.4121C16.4413 23.9247 16.6242 24.5274 16.6242 25.1439C16.6231 25.9702 16.2944 26.7625 15.7101 27.3468C15.1258 27.9311 14.3335 28.2599 13.5071 28.2609ZM13.5071 23.5522C13.1925 23.5522 12.8849 23.6455 12.6233 23.8203C12.3616 23.9951 12.1577 24.2436 12.0373 24.5343C11.9169 24.825 11.8854 25.1449 11.9468 25.4535C12.0082 25.7621 12.1597 26.0456 12.3822 26.2681C12.6047 26.4906 12.8882 26.6421 13.1968 26.7035C13.5054 26.7648 13.8253 26.7333 14.116 26.6129C14.4067 26.4925 14.6551 26.2886 14.83 26.027C15.0048 25.7653 15.0981 25.4578 15.0981 25.1431C15.0975 24.7213 14.9297 24.317 14.6314 24.0188C14.3332 23.7206 13.9289 23.5528 13.5071 23.5522Z" fill="white"/>
</svg>
