<svg width="24" height="24" viewBox="0 0 24 24" fill="none" xmlns="http://www.w3.org/2000/svg">
<path d="M12 3.91299C12.287 3.91299 12.5217 3.67821 12.5217 3.39125V3.13038C12.5217 2.84342 12.287 2.60864 12 2.60864C11.7131 2.60864 11.4783 2.84342 11.4783 3.13038V3.39125C11.4783 3.67821 11.7131 3.91299 12 3.91299Z" fill="white"/>
<path d="M12 20.0869C11.7131 20.0869 11.4783 20.3217 11.4783 20.6087V20.8695C11.4783 21.1565 11.7131 21.3913 12 21.3913C12.287 21.3913 12.5217 21.1565 12.5217 20.8695V20.6087C12.5217 20.3217 12.287 20.0869 12 20.0869Z" fill="white"/>
<path d="M3.39125 11.4783H3.13038C2.84342 11.4783 2.60864 11.7131 2.60864 12C2.60864 12.287 2.84342 12.5217 3.13038 12.5217H3.39125C3.67821 12.5217 3.91299 12.287 3.91299 12C3.91299 11.7131 3.67821 11.4783 3.39125 11.4783Z" fill="white"/>
<path d="M20.8695 11.4783H20.6087C20.3217 11.4783 20.0869 11.7131 20.0869 12C20.0869 12.287 20.3217 12.5217 20.6087 12.5217H20.8695C21.1565 12.5217 21.3913 12.287 21.3913 12C21.3913 11.7131 21.1565 11.4783 20.8695 11.4783Z" fill="white"/>
<path d="M6.10449 5.37405C5.89579 5.16536 5.58275 5.16536 5.37405 5.37405C5.16536 5.58275 5.16536 5.89579 5.37405 6.10449L5.55666 6.28709C5.66101 6.39144 5.79144 6.44362 5.92188 6.44362C6.05231 6.44362 6.18275 6.39144 6.2871 6.28709C6.49579 6.0784 6.49579 5.76536 6.2871 5.55666L6.10449 5.37405Z" fill="white"/>
<path d="M5.55666 17.7132L5.37405 17.8958C5.16536 18.1045 5.16536 18.4175 5.37405 18.6262C5.4784 18.7306 5.60883 18.7827 5.73927 18.7827C5.8697 18.7827 6.00014 18.7306 6.10449 18.6262L6.2871 18.4436C6.49579 18.2349 6.49579 17.9219 6.2871 17.7132C6.0784 17.5045 5.76536 17.5045 5.55666 17.7132Z" fill="white"/>
<path d="M17.8958 5.37405L17.7132 5.55666C17.5045 5.76536 17.5045 6.0784 17.7132 6.28709C17.8175 6.39144 17.9479 6.44362 18.0784 6.44362C18.2088 6.44362 18.3393 6.39144 18.4436 6.28709L18.6262 6.10449C18.8349 5.89579 18.8349 5.58275 18.6262 5.37405C18.4175 5.16536 18.1045 5.16536 17.8958 5.37405Z" fill="white"/>
<path d="M12.5217 11.7913V7.04347C12.5217 6.75651 12.287 6.52173 12 6.52173C11.7131 6.52173 11.4783 6.75651 11.4783 7.04347V12C11.4783 12.1304 11.5304 12.2609 11.6348 12.3652L17.3478 18.0783C17.4522 18.1826 17.5826 18.2348 17.713 18.2348C17.8435 18.2348 17.9739 18.1826 18.0783 18.0783C18.287 17.8696 18.287 17.5565 18.0783 17.3478L12.5217 11.7913Z" fill="white"/>
<path d="M12 0C5.37391 0 0 5.37391 0 12C0 18.6261 5.37391 24 12 24C18.6261 24 24 18.6261 24 12C24 5.37391 18.6261 0 12 0ZM12 22.9565C5.94783 22.9565 1.04348 18.0522 1.04348 12C1.04348 5.94783 5.94783 1.04348 12 1.04348C18.0522 1.04348 22.9565 5.94783 22.9565 12C22.9565 18.0522 18.0522 22.9565 12 22.9565Z" fill="white"/>
</svg>
