<svg width="38" height="38" viewBox="0 0 38 38" fill="none" xmlns="http://www.w3.org/2000/svg">
<rect x="8" y="22" width="11.2" height="11.6" fill="#FEB4A8"/>
<rect x="18.8" y="9.60001" width="11.2" height="26" fill="#FEB4A8"/>
<rect x="19.2" y="8" width="10.4" height="2.4" fill="#FEB4A8"/>
<rect x="20" y="6.79999" width="8.4" height="2.4" fill="#FEB4A8"/>
<rect x="21.2" y="4.79999" width="6" height="2" fill="#FEB4A8"/>
<rect x="21.2" y="4.79999" width="6" height="2" fill="#FEB4A8"/>
<rect x="21.2" y="4.79999" width="6" height="2" fill="#FEB4A8"/>
<path d="M17.8125 10.8424V16.625H8.90625C8.74878 16.625 8.59776 16.6876 8.48641 16.7989C8.37506 16.9103 8.3125 17.0613 8.3125 17.2187V19.4535L7.18771 21.7032C7.14646 21.7856 7.12499 21.8766 7.125 21.9687V33.8437C7.12499 33.9359 7.14646 34.0269 7.18771 34.1093L8.37521 36.4843C8.42453 36.5829 8.50033 36.6659 8.59412 36.7238C8.68791 36.7818 8.79599 36.8125 8.90625 36.8125H18.4062C18.5165 36.8125 18.6246 36.7818 18.7184 36.7238C18.8122 36.6659 18.888 36.5829 18.9373 36.4843L18.9483 36.462C19.4396 36.7636 20.0241 36.8758 20.5922 36.7775C21.1603 36.6793 21.6731 36.3774 22.0347 35.9284C22.5794 36.4675 23.4122 36.8125 24.3437 36.8125C25.2753 36.8125 26.1081 36.4675 26.6528 35.9287C26.9611 36.3111 27.3805 36.5885 27.8531 36.7225C28.3258 36.8565 28.8283 36.8406 29.2915 36.677C29.7547 36.5135 30.1558 36.2102 30.4394 35.8091C30.723 35.408 30.8752 34.9287 30.875 34.4375C30.875 34.4251 30.875 34.4128 30.8738 34.4004L30.2839 24.9611L30.869 20.8651C30.8727 20.8373 30.8745 20.8093 30.8743 20.7812H30.875V10.8424C30.876 10.2331 30.6885 9.63846 30.3383 9.13989L27.2654 4.75H27.3125C27.47 4.75 27.621 4.68744 27.7323 4.57609C27.8437 4.46474 27.9062 4.31372 27.9062 4.15625V2.96875C27.9057 2.4965 27.7179 2.04374 27.3839 1.7098C27.05 1.37587 26.5973 1.18803 26.125 1.1875H22.5625C22.0902 1.18803 21.6375 1.37587 21.3035 1.7098C20.9696 2.04374 20.7818 2.4965 20.7812 2.96875V4.15625C20.7812 4.31372 20.8438 4.46474 20.9552 4.57609C21.0665 4.68744 21.2175 4.75 21.375 4.75H21.4221L18.3495 9.13989C17.9992 9.63843 17.8116 10.2331 17.8125 10.8424ZM8.3125 33.25V22.5625H13.1285C13.7156 24.0787 14.25 25.6827 14.25 27.3125C14.25 29.9695 13.4372 31.5281 12.4639 33.25H8.3125ZM14.3991 22.5625H15.5035C16.0906 24.0787 16.625 25.6827 16.625 27.3125C16.625 29.9695 15.8122 31.5281 14.8389 33.25H13.8234C14.7033 31.6395 15.4375 29.9525 15.4375 27.3125C15.4375 25.6438 14.9599 24.0593 14.3991 22.5625ZM18.0393 35.625H9.27319L8.67944 34.4375H18.6331L18.0393 35.625ZM28.5 35.625C28.1852 35.6246 27.8833 35.4994 27.6607 35.2768C27.4381 35.0542 27.3129 34.7523 27.3125 34.4375C27.3125 34.28 27.2499 34.129 27.1386 34.0177C27.0272 33.9063 26.8762 33.8437 26.7187 33.8437C26.5613 33.8437 26.4103 33.9063 26.2989 34.0177C26.1876 34.129 26.125 34.28 26.125 34.4375C26.125 35.0812 25.3093 35.625 24.3437 35.625C23.3782 35.625 22.5625 35.0812 22.5625 34.4375C22.5625 34.28 22.4999 34.129 22.3886 34.0177C22.2772 33.9063 22.1262 33.8437 21.9687 33.8437C21.8113 33.8437 21.6603 33.9063 21.5489 34.0177C21.4376 34.129 21.375 34.28 21.375 34.4375C21.3751 34.6572 21.3142 34.8726 21.1991 35.0598C21.084 35.247 20.9192 35.3985 20.7231 35.4975C20.5269 35.5966 20.3072 35.6392 20.0882 35.6208C19.8693 35.6023 19.6598 35.5234 19.483 35.3929L20.1248 34.1089C20.166 34.0266 20.1875 33.9358 20.1875 33.8437V21.9687C20.1875 21.8766 20.166 21.7856 20.1248 21.7032L19.9607 21.375H29.5967L29.0998 24.8536C29.094 24.8936 29.0923 24.9341 29.0949 24.9745L29.6875 34.4542C29.6827 34.7661 29.5556 35.0637 29.3334 35.2827C29.1113 35.5017 28.812 35.6247 28.5 35.625ZM21.9687 2.96875C21.9689 2.81133 22.0315 2.66041 22.1428 2.5491C22.2542 2.43779 22.4051 2.37518 22.5625 2.375H26.125C26.2824 2.37518 26.4333 2.43779 26.5446 2.5491C26.656 2.66041 26.7186 2.81133 26.7187 2.96875V3.5625H21.9687V2.96875ZM19 10.8424C18.9994 10.4769 19.1119 10.1201 19.322 9.82092L22.8716 4.75H25.8159L29.3655 9.82092C29.5756 10.1201 29.6881 10.4769 29.6875 10.8424V11.875H19V10.8424ZM19 17.2187V13.0625H29.6875V20.1875H19.3669L19 19.4535V17.2187ZM19 33.25H16.1984C17.0783 31.6395 17.8125 29.9525 17.8125 27.3125C17.8125 25.6438 17.3349 24.0593 16.7741 22.5625H19V33.25ZM8.67944 21.375L9.27319 20.1875H14.8437C15.0012 20.1875 15.1522 20.1249 15.2636 20.0136C15.3749 19.9022 15.4375 19.7512 15.4375 19.5937C15.4375 19.4363 15.3749 19.2853 15.2636 19.1739C15.1522 19.0626 15.0012 19 14.8437 19H9.5V17.8125H17.8125V19H17.2187C17.0613 19 16.9103 19.0626 16.7989 19.1739C16.6876 19.2853 16.625 19.4363 16.625 19.5937C16.625 19.7512 16.6876 19.9022 16.7989 20.0136C16.9103 20.1249 17.0613 20.1875 17.2187 20.1875H18.0393L18.6331 21.375H8.67944Z" fill="#CC2A10"/>
</svg>
