<svg width="76" height="78" viewBox="0 0 76 78" fill="none" xmlns="http://www.w3.org/2000/svg">
<rect width="75.5536" height="77.4663" rx="10" fill="url(#paint0_linear)"/>
<g clip-path="url(#clip0)">
<path d="M29.2962 25.8H46.6436C46.971 25.8 47.2363 25.5335 47.2363 25.206C47.2363 24.8773 46.971 24.6108 46.6436 24.6108H29.2962C28.9675 24.6108 28.701 24.8773 28.701 25.206C28.701 25.5335 28.9675 25.8 29.2962 25.8Z" fill="white"/>
<path d="M22.4624 22.906V58.633C22.4661 59.6615 23.2992 60.4946 24.3265 60.4971H51.6108C52.6406 60.4946 53.4736 59.6615 53.4749 58.633V22.906C53.4736 21.8762 52.6406 21.0432 51.6108 21.0419H42.5505C42.2516 18.5116 39.9591 16.7023 37.4288 17.0012C35.3095 17.2502 33.6384 18.9225 33.3881 21.0419H24.3265C23.298 21.0432 22.4636 21.8762 22.4624 22.906ZM52.2819 58.633C52.2819 59.0053 51.9806 59.3066 51.6083 59.3066H24.3265C23.9542 59.3066 23.6528 59.0053 23.6528 58.633V28.664H52.2869L52.2819 58.633ZM37.9693 18.1468C39.6553 18.1493 41.0861 19.3771 41.3488 21.0419H34.6059C34.8661 19.3833 36.2894 18.1567 37.9693 18.1468ZM51.6108 22.2299C51.9843 22.2299 52.2869 22.5337 52.2869 22.906V27.4735H23.6528V22.906C23.6528 22.5337 23.9542 22.2299 24.3265 22.2299H51.6108Z" fill="white"/>
<path d="M34.4789 35.2189H48.5425C48.87 35.2189 49.1365 34.9524 49.1365 34.6249C49.1365 34.2949 48.87 34.0297 48.5425 34.0297H34.4789C34.1501 34.0297 33.8849 34.2949 33.8849 34.6249C33.8849 34.9524 34.1501 35.2189 34.4789 35.2189Z" fill="white"/>
<path d="M34.4789 41.4264H48.5425C48.87 41.4264 49.1365 41.1599 49.1365 40.8312C49.1365 40.5024 48.87 40.2359 48.5425 40.2359H34.4789C34.1501 40.2359 33.8849 40.5024 33.8849 40.8312C33.8849 41.1599 34.1501 41.4264 34.4789 41.4264Z" fill="white"/>
<path d="M34.4789 47.6288H48.5425C48.87 47.6288 49.1365 47.3611 49.1365 47.0336C49.1365 46.7049 48.87 46.4384 48.5425 46.4384H34.4789C34.1501 46.4384 33.8849 46.7049 33.8849 47.0336C33.8849 47.3611 34.1501 47.6288 34.4789 47.6288Z" fill="white"/>
<path d="M34.4789 53.8301H48.5425C48.87 53.8301 49.1365 53.5649 49.1365 53.2349C49.1365 52.9074 48.87 52.6422 48.5425 52.6422H34.4789C34.1501 52.6422 33.8849 52.9074 33.8849 53.2349C33.8849 53.5649 34.1501 53.8301 34.4789 53.8301Z" fill="white"/>
<path d="M28.5466 35.5514C28.64 35.6846 28.7832 35.773 28.9426 35.7979H29.031C29.1617 35.7979 29.29 35.7531 29.3958 35.6709L33.1851 32.7098C33.4702 32.5441 33.5674 32.1805 33.403 31.8966C33.2386 31.6115 32.875 31.5143 32.5911 31.68C32.5413 31.7074 32.4965 31.7435 32.4566 31.7846L29.1605 34.3634L28.5852 33.5428C28.3972 33.2739 28.0261 33.2066 27.7571 33.3959C27.4881 33.5839 27.4209 33.955 27.6102 34.224L28.5466 35.5514Z" fill="white"/>
<path d="M28.5466 41.6667C28.64 41.7999 28.7832 41.8896 28.9426 41.9145H29.031C29.1617 41.9132 29.29 41.8684 29.3958 41.7862L33.1851 38.8238C33.4516 38.6296 33.5076 38.2572 33.3121 37.992C33.1178 37.728 32.7455 37.6707 32.4803 37.8675C32.4716 37.8737 32.4616 37.8812 32.4529 37.8886L29.1605 40.47L28.5852 39.6494C28.4383 39.3555 28.0809 39.236 27.7883 39.3817C27.4944 39.5286 27.3748 39.886 27.5218 40.1811C27.5454 40.2272 27.5741 40.272 27.6102 40.3106L28.5466 41.6667Z" fill="white"/>
<path d="M28.5466 47.7995C28.64 47.9315 28.7832 48.0199 28.9426 48.0448H29.031C29.1617 48.0448 29.29 48 29.3958 47.9178L33.1851 44.9554C33.4515 44.7599 33.5076 44.3875 33.3121 44.1236C33.1178 43.8583 32.7455 43.8035 32.4803 43.9978C32.4715 44.0053 32.4616 44.0115 32.4529 44.019L29.1567 46.5928L28.5827 45.7722C28.3934 45.5033 28.0223 45.4373 27.7534 45.6253C27.4832 45.8146 27.4184 46.1857 27.6064 46.4546L28.5466 47.7995Z" fill="white"/>
<path d="M28.5466 54.0019C28.64 54.1339 28.7832 54.2236 28.9426 54.2485H29.031C29.1617 54.246 29.29 54.2012 29.3958 54.1215L33.1851 51.1578C33.464 50.9835 33.5474 50.6149 33.3731 50.3372C33.1963 50.0583 32.8289 49.9773 32.5513 50.1517C32.5176 50.1729 32.4853 50.1978 32.4566 50.2264L29.1605 52.804L28.5852 51.9834C28.3972 51.7132 28.0261 51.6484 27.7571 51.8365C27.4881 52.0245 27.4209 52.3956 27.6102 52.6646L28.5466 54.0019Z" fill="white"/>
</g>
<defs>
<linearGradient id="paint0_linear" x1="-1.05004e-06" y1="4.05776" x2="75.9744" y2="77.0282" gradientUnits="userSpaceOnUse">
<stop stop-color="#C20000"/>
<stop offset="0.412274" stop-color="#DC3D3D"/>
<stop offset="0.846333" stop-color="#E85555"/>
</linearGradient>
<clipPath id="clip0">
<rect width="43.5287" height="43.5287" fill="white" transform="translate(16.231 16.9688)"/>
</clipPath>
</defs>
</svg>
