<svg width="35" height="35" viewBox="0 0 35 35" fill="none" xmlns="http://www.w3.org/2000/svg">
<rect x="4.02295" y="8.13953" width="11.6667" height="25.2326" fill="#FEB4A8"/>
<rect x="19.3103" y="8.13953" width="11.6667" height="25.2326" fill="#FEB4A8"/>
<path d="M15.1922 7.71969C15.2711 7.52585 15.3119 7.31865 15.3125 7.10938V6.01562C15.3125 5.5805 15.1396 5.1632 14.832 4.85553C14.5243 4.54785 14.107 4.375 13.6719 4.375H11.9585L11.4789 1.01609C11.4602 0.885829 11.3952 0.76667 11.2957 0.680483C11.1963 0.594295 11.0691 0.546857 10.9375 0.546875H8.75C8.6184 0.546857 8.49121 0.594295 8.39176 0.680483C8.29231 0.76667 8.22728 0.885829 8.20859 1.01609L7.72898 4.375H6.01562C5.5805 4.375 5.1632 4.54785 4.85553 4.85553C4.54785 5.1632 4.375 5.5805 4.375 6.01562V7.10938C4.3756 7.31865 4.41645 7.52585 4.49531 7.71969C4.14806 7.81318 3.84115 8.01818 3.6218 8.30315C3.40244 8.58812 3.28279 8.93726 3.28125 9.29688V32.8125C3.28125 33.2476 3.4541 33.6649 3.76178 33.9726C4.06945 34.2803 4.48675 34.4531 4.92188 34.4531H14.7656C15.2007 34.4531 15.618 34.2803 15.9257 33.9726C16.2334 33.6649 16.4062 33.2476 16.4062 32.8125V9.29688C16.4047 8.93726 16.2851 8.58812 16.0657 8.30315C15.8463 8.01818 15.5394 7.81318 15.1922 7.71969ZM9.22414 1.64062H10.4634L10.8538 4.375H8.83367L9.22414 1.64062ZM5.46875 6.01562C5.46875 5.87058 5.52637 5.73148 5.62893 5.62893C5.73149 5.52637 5.87058 5.46875 6.01562 5.46875H13.6719C13.8169 5.46875 13.956 5.52637 14.0586 5.62893C14.1611 5.73148 14.2188 5.87058 14.2188 6.01562V7.10938C14.2188 7.25442 14.1611 7.39352 14.0586 7.49607C13.956 7.59863 13.8169 7.65625 13.6719 7.65625H6.01562C5.87058 7.65625 5.73149 7.59863 5.62893 7.49607C5.52637 7.39352 5.46875 7.25442 5.46875 7.10938V6.01562ZM15.3125 32.8125C15.3125 32.9575 15.2549 33.0966 15.1523 33.1992C15.0498 33.3018 14.9107 33.3594 14.7656 33.3594H4.92188C4.77683 33.3594 4.63774 33.3018 4.53518 33.1992C4.43262 33.0966 4.375 32.9575 4.375 32.8125V9.29688C4.375 9.15183 4.43262 9.01273 4.53518 8.91018C4.63774 8.80762 4.77683 8.75 4.92188 8.75H14.7656C14.9107 8.75 15.0498 8.80762 15.1523 8.91018C15.2549 9.01273 15.3125 9.15183 15.3125 9.29688V32.8125Z" fill="#CC2A10"/>
<path d="M13.6719 31.1719H13.125C12.98 31.1719 12.8409 31.2295 12.7383 31.3321C12.6357 31.4346 12.5781 31.5737 12.5781 31.7188C12.5781 31.8638 12.6357 32.0029 12.7383 32.1054C12.8409 32.208 12.98 32.2656 13.125 32.2656H13.6719C13.8169 32.2656 13.956 32.208 14.0586 32.1054C14.1611 32.0029 14.2188 31.8638 14.2188 31.7188C14.2188 31.5737 14.1611 31.4346 14.0586 31.3321C13.956 31.2295 13.8169 31.1719 13.6719 31.1719Z" fill="#CC2A10"/>
<path d="M11.4844 31.1719H8.75C8.60496 31.1719 8.46586 31.2295 8.3633 31.3321C8.26074 31.4346 8.20312 31.5737 8.20312 31.7188C8.20312 31.8638 8.26074 32.0029 8.3633 32.1054C8.46586 32.208 8.60496 32.2656 8.75 32.2656H11.4844C11.6294 32.2656 11.7685 32.208 11.8711 32.1054C11.9736 32.0029 12.0312 31.8638 12.0312 31.7188C12.0312 31.5737 11.9736 31.4346 11.8711 31.3321C11.7685 31.2295 11.6294 31.1719 11.4844 31.1719Z" fill="#CC2A10"/>
<path d="M30.5047 7.71969C30.5836 7.52585 30.6244 7.31865 30.625 7.10938V6.01562C30.625 5.5805 30.4521 5.1632 30.1445 4.85553C29.8368 4.54785 29.4195 4.375 28.9844 4.375H27.271L26.7914 1.01609C26.7727 0.885829 26.7077 0.76667 26.6082 0.680483C26.5088 0.594295 26.3816 0.546857 26.25 0.546875H24.0625C23.9309 0.546857 23.8037 0.594295 23.7043 0.680483C23.6048 0.76667 23.5398 0.885829 23.5211 1.01609L23.0415 4.375H21.3281C20.893 4.375 20.4757 4.54785 20.168 4.85553C19.8604 5.1632 19.6875 5.5805 19.6875 6.01562V7.10938C19.6881 7.31865 19.7289 7.52585 19.8078 7.71969C19.4606 7.81318 19.1537 8.01818 18.9343 8.30315C18.7149 8.58812 18.5953 8.93726 18.5938 9.29688V32.8125C18.5938 33.2476 18.7666 33.6649 19.0743 33.9726C19.382 34.2803 19.7993 34.4531 20.2344 34.4531H30.0781C30.5132 34.4531 30.9305 34.2803 31.2382 33.9726C31.5459 33.6649 31.7188 33.2476 31.7188 32.8125V9.29688C31.7172 8.93726 31.5976 8.58812 31.3782 8.30315C31.1588 8.01818 30.8519 7.81318 30.5047 7.71969ZM24.5366 1.64062H25.7759L26.1663 4.375H24.1462L24.5366 1.64062ZM20.7812 6.01562C20.7812 5.87058 20.8389 5.73148 20.9414 5.62893C21.044 5.52637 21.1831 5.46875 21.3281 5.46875H28.9844C29.1294 5.46875 29.2685 5.52637 29.3711 5.62893C29.4736 5.73148 29.5312 5.87058 29.5312 6.01562V7.10938C29.5312 7.25442 29.4736 7.39352 29.3711 7.49607C29.2685 7.59863 29.1294 7.65625 28.9844 7.65625H21.3281C21.1831 7.65625 21.044 7.59863 20.9414 7.49607C20.8389 7.39352 20.7812 7.25442 20.7812 7.10938V6.01562ZM22.4219 8.75H22.9688V11.2109C22.9688 11.2835 22.9399 11.353 22.8887 11.4043C22.8374 11.4556 22.7678 11.4844 22.6953 11.4844C22.6228 11.4844 22.5532 11.4556 22.502 11.4043C22.4507 11.353 22.4219 11.2835 22.4219 11.2109V8.75ZM24.0625 11.2109V8.75H24.6094V13.3984C24.6094 13.471 24.5806 13.5405 24.5293 13.5918C24.478 13.6431 24.4085 13.6719 24.3359 13.6719C24.2634 13.6719 24.1939 13.6431 24.1426 13.5918C24.0913 13.5405 24.0625 13.471 24.0625 13.3984V11.2109ZM30.625 32.8125C30.625 32.9575 30.5674 33.0966 30.4648 33.1992C30.3623 33.3018 30.2232 33.3594 30.0781 33.3594H20.2344C20.0893 33.3594 19.9502 33.3018 19.8477 33.1992C19.7451 33.0966 19.6875 32.9575 19.6875 32.8125V9.29688C19.6875 9.15183 19.7451 9.01273 19.8477 8.91018C19.9502 8.80762 20.0893 8.75 20.2344 8.75H21.3281V11.2109C21.3282 11.4137 21.3733 11.6138 21.4602 11.7969C21.5471 11.9801 21.6737 12.1416 21.8307 12.2698C21.9878 12.398 22.1713 12.4896 22.3682 12.5381C22.565 12.5866 22.7701 12.5908 22.9688 12.5502V13.3984C22.9688 13.761 23.1128 14.1088 23.3692 14.3652C23.6256 14.6216 23.9733 14.7656 24.3359 14.7656C24.6985 14.7656 25.0463 14.6216 25.3027 14.3652C25.5591 14.1088 25.7031 13.761 25.7031 13.3984V8.75H30.0781C30.2232 8.75 30.3623 8.80762 30.4648 8.91018C30.5674 9.01273 30.625 9.15183 30.625 9.29688V32.8125Z" fill="#CC2A10"/>
<path d="M28.9844 31.1719H28.4375C28.2925 31.1719 28.1534 31.2295 28.0508 31.3321C27.9482 31.4346 27.8906 31.5737 27.8906 31.7188C27.8906 31.8638 27.9482 32.0029 28.0508 32.1054C28.1534 32.208 28.2925 32.2656 28.4375 32.2656H28.9844C29.1294 32.2656 29.2685 32.208 29.3711 32.1054C29.4736 32.0029 29.5312 31.8638 29.5312 31.7188C29.5312 31.5737 29.4736 31.4346 29.3711 31.3321C29.2685 31.2295 29.1294 31.1719 28.9844 31.1719Z" fill="#CC2A10"/>
<path d="M26.7969 31.1719H24.0625C23.9175 31.1719 23.7784 31.2295 23.6758 31.3321C23.5732 31.4346 23.5156 31.5737 23.5156 31.7188C23.5156 31.8638 23.5732 32.0029 23.6758 32.1054C23.7784 32.208 23.9175 32.2656 24.0625 32.2656H26.7969C26.9419 32.2656 27.081 32.208 27.1836 32.1054C27.2861 32.0029 27.3438 31.8638 27.3438 31.7188C27.3438 31.5737 27.2861 31.4346 27.1836 31.3321C27.081 31.2295 26.9419 31.1719 26.7969 31.1719Z" fill="#CC2A10"/>
</svg>
