<svg width="114" height="114" viewBox="0 0 114 114" fill="none" xmlns="http://www.w3.org/2000/svg">
<path d="M4.09358 39.6007C4.7159 40.8475 8.00842 46.2762 23.4051 72.0844C23.7604 72.6185 24.2944 72.9738 24.9189 72.9738C25.5413 72.9738 26.1636 72.6185 26.4306 72.0844C26.4306 72.0844 45.0315 40.7592 45.1198 40.5805C46.6336 38.1773 48.591 34.3507 49.3921 29.8114C49.6591 28.388 49.7474 26.9646 49.7474 25.6295C49.8357 11.4797 38.623 0 24.9189 0C11.2127 0 0 11.4797 0 25.6295C0 30.4359 1.3351 35.1518 4.09358 39.6007ZM24.9189 3.55954C36.6656 3.55954 46.2762 13.4371 46.2762 25.6295C46.2762 26.7859 46.1879 27.9444 45.9209 29.1891C45.2081 33.1944 43.4294 36.5752 42.0943 38.7113C42.0943 38.7113 31.0582 57.3122 24.9189 67.6356C20.3796 60.0707 7.29781 38.2677 7.11908 37.822C4.80635 33.9071 3.55954 29.8114 3.55954 25.6295C3.55954 13.4371 13.1701 3.55954 24.9189 3.55954Z" fill="#C20000"/>
<path d="M24.9189 37.3762C31.771 37.3762 37.3784 31.771 37.3784 24.9168C37.3784 18.0647 31.771 12.4595 24.9189 12.4595C18.0647 12.4595 12.4595 18.0647 12.4595 24.9168C12.4595 31.771 18.0647 37.3762 24.9189 37.3762ZM24.9189 16.019C29.8136 16.019 33.8167 20.0221 33.8167 24.9168C33.8167 29.8114 29.8136 33.8167 24.9189 33.8167C20.0243 33.8167 16.019 29.8114 16.019 24.9168C16.019 20.0221 20.0243 16.019 24.9189 16.019Z" fill="#C20000"/>
<path d="M110.352 91.7532V96.6479C110.352 97.5372 109.642 98.2478 108.75 98.3383C107.861 98.4266 107.06 98.6053 106.259 98.6936C105.458 100.029 104.656 101.364 103.855 102.699C105.636 102.344 107.327 102.077 109.196 101.898C111.866 101.543 113.912 99.3159 113.912 96.6479V85.7905C113.556 86.5011 113.201 87.1235 112.844 87.6575C112.667 87.9245 111.687 89.5266 110.352 91.7532Z" fill="#C20000"/>
<path d="M108.662 30.2571C103.054 30.1688 97.3587 31.3252 92.197 33.7284C90.2396 34.6177 88.4609 35.7741 86.7683 36.9326C84.1886 38.623 81.7854 40.1347 79.0269 40.8475C72.7089 42.3613 66.7462 39.5124 60.426 36.4869C57.8463 35.2401 55.1761 33.9954 52.4176 33.0156C52.0623 34.172 51.7048 35.3305 51.2612 36.3986C53.7527 37.2879 56.2442 38.4443 58.8261 39.6911C65.4111 42.8049 72.2632 46.0091 79.828 44.2304C83.2088 43.4294 85.9673 41.6485 88.7279 39.8677C90.4183 38.8018 92.0204 37.7337 93.7108 36.9326C98.4267 34.7965 103.588 33.7284 108.573 33.8167C109.551 33.8167 110.352 34.6177 110.352 35.5071V54.5537C111.687 55.9771 112.934 57.5792 113.912 59.3579V35.5071C113.912 32.6603 111.599 30.3454 108.662 30.2571Z" fill="#C20000"/>
<path d="M73.6866 108.571C69.2377 108.75 66.1217 108.039 63.6303 106.258C52.5059 98.5149 40.8475 94.6001 29.6348 94.6001C21.3594 94.6001 13.3488 96.7363 6.051 101.009C5.42867 101.364 4.80635 101.097 4.53933 101.009C4.09358 100.742 3.55954 100.208 3.55954 99.4947V45.742C2.22444 43.4293 1.42338 42.1825 1.06808 41.3814H0.977635C0.622327 40.7591 0.267019 40.2251 0 39.6006V99.316C0 101.185 1.06808 102.966 2.75848 103.944C4.3606 104.835 6.22973 104.923 7.83185 103.944C23.8509 94.6001 43.4294 96.4692 61.5845 109.017C65.2324 111.508 69.326 111.954 72.5302 111.954C72.9759 111.954 73.4195 111.954 73.777 111.954C77.2461 111.866 80.8056 110.974 84.3673 109.463C83.7428 108.395 83.1205 107.327 82.4982 106.347C79.561 107.772 76.5355 108.483 73.6866 108.571Z" fill="#C20000"/>
<path d="M92.1087 50.1909C80.095 50.1909 70.3057 60.2494 70.3057 72.7067C70.3057 76.8907 71.4621 80.9843 73.8653 84.9896C74.4876 86.0576 77.2461 90.6853 90.5971 113.111C90.9524 113.645 91.4864 114 92.1087 114C92.7311 114 93.3555 113.645 93.6226 113.111L109.818 85.7906C111.153 83.7428 112.844 80.3619 113.556 76.3567C113.823 75.1098 113.912 73.8652 113.912 72.6184C113.912 60.2494 104.122 50.1909 92.1087 50.1909ZM110.085 75.7343C109.463 79.2034 107.949 82.0523 106.793 83.9215C106.704 84.0098 96.114 101.898 92.1087 108.662C88.0151 101.719 76.9791 83.297 76.8908 83.1204C74.8451 79.7375 73.8653 76.2684 73.8653 72.7067C73.8653 62.2951 82.0524 53.7526 92.1087 53.7526C102.165 53.7526 110.352 62.2068 110.352 72.6184C110.352 73.5982 110.264 74.6662 110.085 75.7343Z" fill="#C20000"/>
<path d="M92.1087 60.7812C85.879 60.7812 80.8056 65.8546 80.8056 72.0843C80.8056 78.3141 85.879 83.3874 92.1087 83.3874C98.3385 83.3874 103.321 78.3141 103.321 72.0843C103.321 65.8546 98.2502 60.7812 92.1087 60.7812ZM92.1087 79.8279C87.8364 79.8279 84.3673 76.3567 84.3673 72.0843C84.3673 67.812 87.8364 64.3429 92.1087 64.3429C96.381 64.3429 99.8523 67.812 99.8523 72.0843C99.8523 76.3567 96.2906 79.8279 92.1087 79.8279Z" fill="#C20000"/>
<path d="M24.7402 79.2032C23.7604 79.2936 23.0498 80.183 23.1381 81.1628C23.1381 81.1628 23.1381 81.4298 23.2264 81.7851C23.4051 82.5862 24.1179 83.2085 24.9189 83.2085C25.0072 83.2085 25.186 83.2085 25.2742 83.1202C26.254 82.9415 26.7881 81.9617 26.6093 80.9841C26.6093 80.8958 26.6093 80.8053 26.6093 80.717C26.6093 79.8277 25.72 79.1149 24.7402 79.2032Z" fill="#C20000"/>
<path d="M51.9719 86.5919C51.9719 86.5919 52.0623 86.5919 52.1506 86.5919C52.4176 86.5919 52.6846 86.5919 52.9517 86.5014C53.9293 86.4131 54.6421 85.6121 54.6421 84.6323C54.5538 83.6547 53.7527 82.9419 52.7729 82.9419C52.5059 82.9419 52.1506 82.9419 51.8836 83.0302C50.9038 83.1206 50.1932 83.9217 50.2815 84.8993C50.1932 85.8791 50.9942 86.5919 51.9719 86.5919Z" fill="#C20000"/>
<path d="M37.4667 85.5238C37.1997 85.5238 36.9327 85.6121 36.6656 85.6121C35.6858 85.7004 34.9752 86.5919 35.0635 87.5695C35.1518 88.4588 35.9529 89.1716 36.8444 89.1716C36.9327 89.1716 36.9327 89.1716 37.0209 89.1716C37.288 89.1716 37.6454 89.0833 37.9103 89.0833C38.8901 88.9929 39.6028 88.1035 39.4241 87.1238C39.3358 86.0578 38.4443 85.4333 37.4667 85.5238Z" fill="#C20000"/>
<path d="M66.5675 89.3503C66.8345 89.5268 67.1898 89.7056 67.5473 89.7056C68.0813 89.7056 68.7037 89.4386 69.059 88.9045C69.593 88.1035 69.4164 86.9471 68.6154 86.4131C68.3483 86.2343 68.0813 86.0577 67.8143 85.879C67.0132 85.345 65.8547 85.612 65.4111 86.5013C64.8771 87.3024 65.1441 88.4588 66.0335 88.9045C66.1217 89.0832 66.3005 89.1715 66.5675 89.3503Z" fill="#C20000"/>
<path d="M60.159 86.8588C60.2495 86.8588 60.3378 86.8588 60.426 86.8588C61.3175 86.8588 62.0282 86.2343 62.2069 85.3449C62.3856 84.3651 61.7611 83.4758 60.7835 83.2971C60.5165 83.2088 60.159 83.2088 59.892 83.1205C58.9144 83.03 58.025 83.6545 57.8463 84.6322C57.6676 85.612 58.3803 86.5013 59.358 86.68C59.625 86.7683 59.892 86.8588 60.159 86.8588Z" fill="#C20000"/>
<path d="M44.8528 84.0098C44.5858 84.0981 44.3187 84.0981 43.9634 84.1886C42.9836 84.3651 42.3613 85.3449 42.54 86.3247C42.7166 87.1236 43.4294 87.7481 44.3187 87.7481C44.407 87.7481 44.5858 87.7481 44.674 87.7481L45.4751 87.5694C46.4549 87.3906 47.0772 86.413 46.9006 85.5237C46.7219 84.4556 45.8326 83.8311 44.8528 84.0098Z" fill="#C20000"/>
<path d="M29.9902 84.8107C29.1008 84.3649 28.0327 84.8107 27.6774 85.7C27.2317 86.5915 27.6774 87.6574 28.5668 88.0149C28.8338 88.1032 29.1891 88.2819 29.4561 88.3702C29.6349 88.4585 29.8136 88.4585 30.0806 88.4585C30.7912 88.4585 31.504 88.0149 31.771 87.3021C32.1263 86.4128 31.5923 85.3447 30.7029 84.9894C30.4359 84.9894 30.2572 84.8989 29.9902 84.8107Z" fill="#C20000"/>
<path d="M72.0844 95.2224C72.3515 95.2224 72.5302 95.1341 72.7972 95.0458C73.6866 94.6884 74.1323 93.6203 73.777 92.731C73.6866 92.5522 73.6866 92.4639 73.5983 92.2874C73.1525 91.3959 72.1749 91.0406 71.2834 91.3959C70.394 91.8416 70.0387 92.8192 70.394 93.7108C70.4823 93.799 70.4823 93.9778 70.5728 94.0661C70.7493 94.7788 71.3738 95.2224 72.0844 95.2224Z" fill="#C20000"/>
</svg>
