<svg width="40" height="40" viewBox="0 0 40 40" fill="none" xmlns="http://www.w3.org/2000/svg">
<path d="M19.9998 0C11.8521 0 5.22363 6.62842 5.22363 14.7762C5.22363 17.4585 6.42659 20.3433 6.477 20.465C6.86553 21.3872 7.63215 22.8196 8.18495 23.6593L18.3162 39.01C18.7308 39.6393 19.3444 40 19.9998 40C20.6552 40 21.2688 39.6393 21.6834 39.0109L31.8155 23.6593C32.3692 22.8196 33.135 21.3872 33.5235 20.465C33.5739 20.3442 34.776 17.4594 34.776 14.7762C34.776 6.62842 28.1476 0 19.9998 0ZM31.9207 19.7905C31.5739 20.6171 30.8603 21.9496 30.364 22.7023L20.2319 38.0539C20.032 38.3572 19.9685 38.3572 19.7686 38.0539L9.6365 22.7023C9.14019 21.9496 8.42659 20.6163 8.07978 19.7897C8.06501 19.754 6.96201 17.0987 6.96201 14.7762C6.96201 7.58714 12.8108 1.73837 19.9998 1.73837C27.1889 1.73837 33.0376 7.58714 33.0376 14.7762C33.0376 17.1021 31.932 19.7645 31.9207 19.7905Z" fill="black"/>
<path d="M19.9997 6.95435C15.6859 6.95435 12.177 10.4641 12.177 14.777C12.177 19.0899 15.6859 22.5997 19.9997 22.5997C24.3135 22.5997 27.8224 19.0899 27.8224 14.777C27.8224 10.4641 24.3135 6.95435 19.9997 6.95435ZM19.9997 20.8613C16.6455 20.8613 13.9154 18.1321 13.9154 14.777C13.9154 11.422 16.6455 8.69272 19.9997 8.69272C23.3539 8.69272 26.084 11.422 26.084 14.777C26.084 18.1321 23.3539 20.8613 19.9997 20.8613Z" fill="black"/>
</svg>
