<svg width="77" height="97" viewBox="0 0 77 97" fill="none" xmlns="http://www.w3.org/2000/svg">
<path d="M65.3903 75.7724H10.644C4.77608 75.7724 0 71.0128 0 65.165V10.6074C0 4.75959 4.77608 0 10.644 0H65.3903C71.2583 0 76.0362 4.75959 76.0362 10.6074V65.165C76.0362 71.0128 71.2583 75.7724 65.3903 75.7724ZM10.644 3.03016C6.45238 3.03016 3.04115 6.43039 3.04115 10.6074V65.165C3.04115 69.342 6.45238 72.7422 10.644 72.7422H65.3903C69.5838 72.7422 72.9932 69.342 72.9932 65.165V10.6074C72.9932 6.43039 69.5838 3.03016 65.3903 3.03016H10.644Z" fill="#C20000"/>
<path d="M65.3903 71.2256H10.644C7.28962 71.2256 4.56174 68.5069 4.56174 65.1653V10.6077C4.56174 7.26608 7.28962 4.54736 10.644 4.54736H65.3903C68.7448 4.54736 71.4726 7.26608 71.4726 10.6077V65.1653C71.4726 68.5069 68.7448 71.2256 65.3903 71.2256ZM10.644 7.57753C8.96775 7.57753 7.60289 8.93688 7.60289 10.6077V65.1653C7.60289 66.8361 8.96775 68.1954 10.644 68.1954H65.3903C67.0685 68.1954 68.4315 66.8361 68.4315 65.1653V10.6077C68.4315 8.93688 67.0685 7.57753 65.3903 7.57753H10.644Z" fill="#C20000"/>
<path d="M34.9678 97.0002C34.1269 97.0002 33.4472 96.3242 33.4472 95.4851V74.2685C33.4472 73.4313 34.1269 72.7534 34.9678 72.7534C35.8087 72.7534 36.4884 73.4313 36.4884 74.2685V95.4851C36.4884 96.3242 35.8087 97.0002 34.9678 97.0002Z" fill="#C20000"/>
<path d="M41.0519 97.0002C40.211 97.0002 39.5313 96.3242 39.5313 95.4851V74.2685C39.5313 73.4313 40.211 72.7534 41.0519 72.7534C41.8928 72.7534 42.5725 73.4313 42.5725 74.2685V95.4851C42.5725 96.3242 41.8928 97.0002 41.0519 97.0002Z" fill="#C20000"/>
<path d="M33.46 62.1351H24.3329C23.492 62.1351 22.8123 61.4573 22.8123 60.6201C22.8123 59.781 23.492 59.105 24.3329 59.105H33.46C34.3009 59.105 34.9806 59.781 34.9806 60.6201C34.9806 61.4573 34.3009 62.1351 33.46 62.1351Z" fill="#C20000"/>
<path d="M24.3329 62.1347C23.492 62.1347 22.8123 61.4569 22.8123 60.6196V15.1562C22.8123 14.3171 23.492 13.6411 24.3329 13.6411C25.1738 13.6411 25.8535 14.3171 25.8535 15.1562V60.6196C25.8535 61.4569 25.1738 62.1347 24.3329 62.1347Z" fill="#C20000"/>
<path d="M33.46 62.135C32.6191 62.135 31.9395 61.4571 31.9395 60.6199V45.4672C31.9395 44.63 32.6191 43.9521 33.46 43.9521C34.3009 43.9521 34.9806 44.63 34.9806 45.4672V60.6199C34.9806 61.4571 34.3009 62.135 33.46 62.135Z" fill="#C20000"/>
<path d="M42.5853 46.9802C41.7444 46.9802 41.0647 46.3024 41.0647 45.4651C41.0647 44.6261 41.7444 43.9501 42.5853 43.9501C50.1332 43.9501 56.2723 37.8311 56.2723 30.3107C56.2723 22.7884 50.1332 16.6713 42.5853 16.6713C41.7444 16.6713 41.0647 15.9934 41.0647 15.1562C41.0647 14.3171 41.7444 13.6411 42.5853 13.6411C51.8095 13.6411 59.3135 21.1194 59.3135 30.3107C59.3135 39.5019 51.8095 46.9802 42.5853 46.9802Z" fill="#C20000"/>
<path d="M42.5853 37.8879C41.7444 37.8879 41.0647 37.21 41.0647 36.3728C41.0647 35.5337 41.7444 34.8559 42.5853 34.8559C45.1007 34.8559 47.147 32.8168 47.147 30.3106C47.147 27.8044 45.1007 25.7636 42.5853 25.7636C41.7444 25.7636 41.0647 25.0857 41.0647 24.2485C41.0647 23.4112 41.7444 22.7334 42.5853 22.7334C46.7788 22.7334 50.19 26.1318 50.19 30.3106C50.19 34.4876 46.7788 37.8879 42.5853 37.8879Z" fill="#C20000"/>
<path d="M42.5853 16.6713H24.3329C23.492 16.6713 22.8123 15.9934 22.8123 15.1562C22.8123 14.3171 23.492 13.6411 24.3329 13.6411H42.5853C43.4262 13.6411 44.1059 14.3171 44.1059 15.1562C44.1059 15.9934 43.4262 16.6713 42.5853 16.6713Z" fill="#C20000"/>
<path d="M42.5853 46.9841H33.46C32.6191 46.9841 31.9395 46.3063 31.9395 45.4672C31.9395 44.63 32.6191 43.9521 33.46 43.9521H42.5853C43.4262 43.9521 44.1059 44.63 44.1059 45.4672C44.1059 46.3063 43.4262 46.9841 42.5853 46.9841Z" fill="#C20000"/>
<path d="M42.5853 25.7636H33.4564C32.6155 25.7636 31.9358 25.0857 31.9358 24.2485C31.9358 23.4112 32.6155 22.7334 33.4564 22.7334H42.5853C43.4262 22.7334 44.1059 23.4112 44.1059 24.2485C44.1059 25.0857 43.4262 25.7636 42.5853 25.7636Z" fill="#C20000"/>
<path d="M33.4564 37.8897C32.6155 37.8897 31.9358 37.2137 31.9358 36.3746V24.2485C31.9358 23.4112 32.6155 22.7334 33.4564 22.7334C34.2973 22.7334 34.9769 23.4112 34.9769 24.2485V36.3746C34.9769 37.2137 34.2973 37.8897 33.4564 37.8897Z" fill="#C20000"/>
<path d="M42.5853 37.89H33.4564C32.6155 37.89 31.9358 37.214 31.9358 36.3749C31.9358 35.5377 32.6155 34.8599 33.4564 34.8599H42.5853C43.4262 34.8599 44.1059 35.5377 44.1059 36.3749C44.1059 37.214 43.4262 37.89 42.5853 37.89Z" fill="#C20000"/>
</svg>
