<svg width="16" height="16" viewBox="0 0 16 16" fill="none" xmlns="http://www.w3.org/2000/svg">
<path d="M11.2975 15.0561C10.6871 15.0561 9.89479 14.8626 8.86884 14.3336C7.44403 13.5989 5.80736 12.3417 4.25993 10.7936C2.7125 9.24545 1.4563 7.60776 0.721921 6.18193C-0.419492 3.96586 0.00253443 2.83875 0.557743 2.28355L2.68116 0.158766C2.79833 0.0330777 2.96898 -0.0217619 3.1553 0.00787191C3.53475 0.0681615 4.28956 0.628139 4.85567 1.08729C5.42178 1.54645 6.12584 2.1691 6.26345 2.52845C6.33532 2.71647 6.30977 2.90722 6.1926 3.05164C6.18272 3.0639 6.17216 3.07583 6.16126 3.08707L4.46634 4.78267C4.56376 5.16654 5.39044 6.37336 7.03427 8.01786C8.67776 9.66237 9.88389 10.4897 10.2674 10.5872L11.9623 8.89155C11.9736 8.88031 11.9852 8.86975 11.9974 8.85987C12.0683 8.80231 12.2631 8.68071 12.5451 8.78868C12.9546 8.94605 13.6266 9.72368 13.9907 10.1733C14.3552 10.6229 14.9765 11.4418 15.0449 11.875C15.0865 12.1363 14.9697 12.2957 14.8923 12.3699L12.7655 14.4981C12.4675 14.7962 12.0046 15.0561 11.2975 15.0561ZM3.15087 0.972845L1.19947 2.92527C0.548206 3.57688 1.12624 4.98465 1.52851 5.76603C2.22098 7.11045 3.41894 8.66776 4.90165 10.1515C6.38437 11.6349 7.941 12.8335 9.28474 13.5267C10.0654 13.9293 11.4729 14.5073 12.1238 13.8561L14.0905 11.8883C13.9764 11.6724 13.7077 11.2653 13.286 10.7449C12.8956 10.2632 12.5734 9.92976 12.3789 9.75877L10.8298 11.3089C10.3492 11.7895 9.53646 11.3103 8.80481 10.7786C8.10926 10.2728 7.25261 9.52033 6.3922 8.65959C5.53214 7.79885 4.78005 6.94185 4.27492 6.24596C3.74355 5.51397 3.26464 4.70092 3.74491 4.2203L5.27872 2.68582C4.84511 2.21644 3.65363 1.25454 3.15087 0.972845Z" fill="#16283E"/>
</svg>
