<svg width="143" height="26" viewBox="0 0 143 26" fill="none" xmlns="http://www.w3.org/2000/svg">
<path d="M12.5478 2.96718C12.845 2.04125 14.155 2.04125 14.4522 2.96718L16.4641 9.23667C16.5969 9.65046 16.9817 9.93112 17.4162 9.93112H23.9531C24.9188 9.93112 25.3235 11.1644 24.5456 11.7366L19.2359 15.6427C18.8898 15.8973 18.745 16.3446 18.8763 16.7537L20.8994 23.0581C21.1957 23.9816 20.1359 24.7439 19.3546 24.1691L14.0926 20.2982C13.7401 20.0388 13.2599 20.0388 12.9074 20.2982L7.64536 24.1691C6.8641 24.7439 5.80426 23.9816 6.10062 23.0581L8.12368 16.7537C8.25498 16.3446 8.11022 15.8973 7.76408 15.6427L2.45436 11.7366C1.67646 11.1644 2.08122 9.93112 3.04693 9.93112H9.58376C10.0183 9.93112 10.4031 9.65046 10.5359 9.23667L12.5478 2.96718Z" fill="#FFD749"/>
<path d="M41.5478 2.96718C41.845 2.04125 43.155 2.04125 43.4522 2.96718L45.4641 9.23667C45.5969 9.65046 45.9817 9.93112 46.4162 9.93112H52.9531C53.9188 9.93112 54.3235 11.1644 53.5456 11.7366L48.2359 15.6427C47.8898 15.8973 47.745 16.3446 47.8763 16.7537L49.8994 23.0581C50.1957 23.9816 49.1359 24.7439 48.3546 24.1691L43.0926 20.2982C42.7401 20.0388 42.2599 20.0388 41.9074 20.2982L36.6454 24.1691C35.8641 24.7439 34.8043 23.9816 35.1006 23.0581L37.1237 16.7537C37.255 16.3446 37.1102 15.8973 36.7641 15.6427L31.4544 11.7366C30.6765 11.1644 31.0812 9.93112 32.0469 9.93112H38.5838C39.0183 9.93112 39.4031 9.65046 39.5359 9.23667L41.5478 2.96718Z" fill="#FFD749"/>
<path d="M70.5478 2.96718C70.845 2.04125 72.155 2.04125 72.4522 2.96718L74.4641 9.23667C74.5969 9.65046 74.9817 9.93112 75.4162 9.93112H81.9531C82.9188 9.93112 83.3235 11.1644 82.5456 11.7366L77.2359 15.6427C76.8898 15.8973 76.745 16.3446 76.8763 16.7537L78.8994 23.0581C79.1957 23.9816 78.1359 24.7439 77.3546 24.1691L72.0926 20.2982C71.7401 20.0388 71.2599 20.0388 70.9074 20.2982L65.6454 24.1691C64.8641 24.7439 63.8043 23.9816 64.1006 23.0581L66.1237 16.7537C66.255 16.3446 66.1102 15.8973 65.7641 15.6427L60.4544 11.7366C59.6765 11.1644 60.0812 9.93112 61.0469 9.93112H67.5838C68.0183 9.93112 68.4031 9.65046 68.5359 9.23667L70.5478 2.96718Z" fill="#FFD749"/>
<path d="M99.5478 2.96718C99.845 2.04125 101.155 2.04125 101.452 2.96718L103.464 9.23667C103.597 9.65046 103.982 9.93112 104.416 9.93112H110.953C111.919 9.93112 112.324 11.1644 111.546 11.7366L106.236 15.6427C105.89 15.8973 105.745 16.3446 105.876 16.7537L107.899 23.0581C108.196 23.9816 107.136 24.7439 106.355 24.1691L101.093 20.2982C100.74 20.0388 100.26 20.0388 99.9074 20.2982L94.6454 24.1691C93.8641 24.7439 92.8043 23.9816 93.1006 23.0581L95.1237 16.7537C95.255 16.3446 95.1102 15.8973 94.7641 15.6427L89.4544 11.7366C88.6765 11.1644 89.0812 9.93112 90.0469 9.93112H96.5838C97.0183 9.93112 97.4031 9.65046 97.5359 9.23667L99.5478 2.96718Z" fill="#FFD749"/>
<path d="M128.548 2.96718C128.845 2.04125 130.155 2.04125 130.452 2.96718L132.464 9.23667C132.597 9.65046 132.982 9.93112 133.416 9.93112H139.953C140.919 9.93112 141.324 11.1644 140.546 11.7366L135.236 15.6427C134.89 15.8973 134.745 16.3446 134.876 16.7537L136.899 23.0581C137.196 23.9816 136.136 24.7439 135.355 24.1691L130.093 20.2982C129.74 20.0388 129.26 20.0388 128.907 20.2982L123.645 24.1691C122.864 24.7439 121.804 23.9816 122.101 23.0581L124.124 16.7537C124.255 16.3446 124.11 15.8973 123.764 15.6427L118.454 11.7366C117.676 11.1644 118.081 9.93112 119.047 9.93112H125.584C126.018 9.93112 126.403 9.65046 126.536 9.23667L128.548 2.96718Z" fill="#FFD749"/>
</svg>
