<svg width="41" height="41" viewBox="0 0 41 41" fill="none" xmlns="http://www.w3.org/2000/svg">
<path fill-rule="evenodd" clip-rule="evenodd" d="M3.13623 14.4476C3.44288 21.616 9.35134 27.3333 16.5952 27.3333C23.839 27.3333 29.7474 21.616 30.0541 14.4476H3.13623Z" fill="#FEB4A8"/>
<path d="M15.6898 4.22411C15.464 4.42334 15.1228 4.72436 15.1228 5.29796C15.1228 5.42538 15.1734 5.54759 15.2635 5.6377C15.3536 5.7278 15.4758 5.77842 15.6033 5.77842C15.7307 5.77842 15.8529 5.7278 15.943 5.6377C16.0331 5.54759 16.0837 5.42538 16.0837 5.29796C16.0837 5.17095 16.1295 5.11762 16.3255 4.94481C16.5513 4.74558 16.8925 4.44456 16.8925 3.87096C16.8925 3.29736 16.5513 2.99635 16.3255 2.7972C16.1295 2.62431 16.0837 2.57098 16.0837 2.44397C16.0837 2.31697 16.1295 2.26428 16.3253 2.09163C16.5512 1.89247 16.8925 1.59146 16.8925 1.0177C16.8925 0.890272 16.8419 0.768063 16.7518 0.677957C16.6617 0.587852 16.5395 0.537231 16.4121 0.537231C16.2846 0.537231 16.1624 0.587852 16.0723 0.677957C15.9822 0.768063 15.9316 0.890272 15.9316 1.0177C15.9316 1.1447 15.8858 1.19804 15.6898 1.37084C15.4639 1.56992 15.1228 1.87069 15.1228 2.44389C15.1228 3.01709 15.464 3.3185 15.6898 3.51774C15.8858 3.69055 15.9316 3.74388 15.9316 3.87088C15.9316 3.99789 15.8858 4.0513 15.6898 4.22411Z" fill="#CC2A10"/>
<path d="M12.3441 4.22411C12.1183 4.42334 11.7771 4.72436 11.7771 5.29796C11.7771 5.42538 11.8277 5.54759 11.9178 5.6377C12.0079 5.7278 12.1301 5.77842 12.2576 5.77842C12.385 5.77842 12.5072 5.7278 12.5973 5.6377C12.6874 5.54759 12.738 5.42538 12.738 5.29796C12.738 5.17095 12.7838 5.11762 12.9798 4.94481C13.2056 4.74558 13.5468 4.44456 13.5468 3.87096C13.5468 3.29736 13.2056 2.99635 12.9798 2.7972C12.7838 2.62431 12.738 2.57098 12.738 2.44397C12.738 2.31697 12.7838 2.26428 12.9796 2.09163C13.2055 1.89247 13.5468 1.59146 13.5468 1.0177C13.5468 0.890272 13.4962 0.768063 13.4061 0.677957C13.316 0.587852 13.1938 0.537231 13.0664 0.537231C12.9389 0.537231 12.8167 0.587852 12.7266 0.677957C12.6365 0.768063 12.5859 0.890272 12.5859 1.0177C12.5859 1.1447 12.5401 1.19804 12.3441 1.37084C12.1182 1.56992 11.7771 1.87069 11.7771 2.44389C11.7771 3.01709 12.1183 3.3185 12.3441 3.51774C12.5401 3.69055 12.5859 3.74388 12.5859 3.87088C12.5859 3.99789 12.5402 4.0513 12.3441 4.22411Z" fill="#CC2A10"/>
<path d="M19.0355 4.22411C18.8097 4.42334 18.4685 4.72436 18.4685 5.29796C18.4685 5.42538 18.5191 5.54759 18.6092 5.6377C18.6993 5.7278 18.8215 5.77842 18.949 5.77842C19.0764 5.77842 19.1986 5.7278 19.2887 5.6377C19.3788 5.54759 19.4294 5.42538 19.4294 5.29796C19.4294 5.17095 19.4752 5.11762 19.6712 4.94481C19.897 4.74558 20.2382 4.44456 20.2382 3.87096C20.2382 3.29736 19.897 2.99635 19.6712 2.7972C19.4752 2.62431 19.4294 2.57098 19.4294 2.44397C19.4294 2.31697 19.4752 2.26428 19.671 2.09163C19.8969 1.89247 20.2382 1.59146 20.2382 1.0177C20.2382 0.890272 20.1876 0.768063 20.0975 0.677957C20.0074 0.587852 19.8852 0.537231 19.7578 0.537231C19.6303 0.537231 19.5081 0.587852 19.418 0.677957C19.3279 0.768063 19.2773 0.890272 19.2773 1.0177C19.2773 1.1447 19.2315 1.19804 19.0355 1.37084C18.8097 1.56992 18.4685 1.87069 18.4685 2.44389C18.4685 3.01709 18.8097 3.3185 19.0355 3.51774C19.2315 3.69055 19.2773 3.74388 19.2773 3.87088C19.2773 3.99789 19.2315 4.0513 19.0355 4.22411Z" fill="#CC2A10"/>
<rect x="30.0667" y="8.20001" width="7.80952" height="2.34286" fill="#FEB4A8"/>
<path d="M22.3812 4.22411C22.1554 4.42334 21.8142 4.72436 21.8142 5.29796C21.8142 5.42538 21.8648 5.54759 21.9549 5.6377C22.045 5.7278 22.1673 5.77842 22.2947 5.77842C22.4221 5.77842 22.5443 5.7278 22.6344 5.6377C22.7245 5.54759 22.7751 5.42538 22.7751 5.29796C22.7751 5.17095 22.821 5.11762 23.0169 4.94481C23.2427 4.74558 23.5839 4.44456 23.5839 3.87096C23.5839 3.29736 23.2427 2.99635 23.0169 2.7972C22.821 2.62431 22.7751 2.57098 22.7751 2.44397C22.7751 2.31697 22.8209 2.26428 23.0167 2.09163C23.2426 1.89247 23.5839 1.59146 23.5839 1.0177C23.5839 0.890272 23.5333 0.768063 23.4432 0.677957C23.3531 0.587852 23.2309 0.537231 23.1035 0.537231C22.976 0.537231 22.8538 0.587852 22.7637 0.677957C22.6736 0.768063 22.623 0.890272 22.623 1.0177C22.623 1.1447 22.5772 1.19804 22.3812 1.37084C22.1554 1.56992 21.8142 1.87069 21.8142 2.44389C21.8142 3.01709 22.1554 3.3185 22.3812 3.51774C22.5772 3.69055 22.623 3.74388 22.623 3.87088C22.623 3.99789 22.5772 4.0513 22.3812 4.22411Z" fill="#CC2A10"/>
<path d="M5.85937 9.79275H7.85572V11.0492C7.85572 11.1766 7.90634 11.2988 7.99645 11.3889C8.08655 11.479 8.20876 11.5296 8.33619 11.5296H10.5287C10.6562 11.5296 10.7784 11.479 10.8685 11.3889C10.9586 11.2988 11.0092 11.1766 11.0092 11.0492V9.79275H11.272C11.3813 10.2854 11.6553 10.7261 12.0488 11.0419C12.4424 11.3578 12.9319 11.5299 13.4366 11.5299C13.9412 11.5299 14.4307 11.3578 14.8243 11.0419C15.2178 10.7261 15.4919 10.2854 15.6011 9.79275H15.9436V11.0492C15.9436 11.1766 15.9942 11.2988 16.0843 11.3889C16.1744 11.479 16.2967 11.5296 16.4241 11.5296H18.4565C18.5839 11.5296 18.7061 11.479 18.7962 11.3889C18.8863 11.2988 18.9369 11.1766 18.9369 11.0492V9.79275H19.2798C19.3891 10.2854 19.6631 10.7261 20.0567 11.0419C20.4502 11.3578 20.9397 11.5299 21.4444 11.5299C21.949 11.5299 22.4385 11.3578 22.8321 11.0419C23.2257 10.7261 23.4997 10.2854 23.6089 9.79275H23.8713V11.0492C23.8713 11.1766 23.922 11.2988 24.0121 11.3889C24.1022 11.479 24.2244 11.5296 24.3518 11.5296H26.3842C26.5116 11.5296 26.6338 11.479 26.7239 11.3889C26.814 11.2988 26.8647 11.1766 26.8647 11.0492V9.79275H29.452V10.5535C29.452 10.6809 29.5026 10.8031 29.5927 10.8932C29.6828 10.9833 29.805 11.034 29.9325 11.034H36.8592C37.3158 11.034 37.7537 10.8526 38.0766 10.5297C38.3995 10.2068 38.5809 9.7689 38.5809 9.31228C38.5809 8.85566 38.3995 8.41775 38.0766 8.09487C37.7537 7.77199 37.3158 7.5906 36.8592 7.5906H29.9325C29.805 7.5906 29.6828 7.64122 29.5927 7.73133C29.5026 7.82143 29.452 7.94364 29.452 8.07107V8.83181H26.8647V7.57539C26.8647 7.44796 26.814 7.32575 26.7239 7.23564C26.6338 7.14554 26.5116 7.09492 26.3842 7.09492H24.3518C24.2244 7.09492 24.1022 7.14554 24.0121 7.23564C23.922 7.32575 23.8713 7.44796 23.8713 7.57539V8.83181H23.6089C23.4996 8.33913 23.2256 7.89846 22.832 7.58261C22.4384 7.26675 21.9488 7.0946 21.4442 7.0946C20.9395 7.0946 20.45 7.26675 20.0564 7.58261C19.6628 7.89846 19.3887 8.33913 19.2794 8.83181H18.9369V7.57539C18.9369 7.44796 18.8863 7.32575 18.7962 7.23564C18.7061 7.14554 18.5839 7.09492 18.4565 7.09492H16.4241C16.2967 7.09492 16.1744 7.14554 16.0843 7.23564C15.9942 7.32575 15.9436 7.44796 15.9436 7.57539V8.83181H15.6011C15.4918 8.33913 15.2178 7.89846 14.8242 7.58261C14.4306 7.26675 13.941 7.0946 13.4364 7.0946C12.9317 7.0946 12.4421 7.26675 12.0486 7.58261C11.655 7.89846 11.3809 8.33913 11.2716 8.83181H11.0092V7.57539C11.0092 7.44796 10.9586 7.32575 10.8685 7.23564C10.7784 7.14554 10.6562 7.09492 10.5287 7.09492H8.33619C8.20876 7.09492 8.08655 7.14554 7.99645 7.23564C7.90634 7.32575 7.85572 7.44796 7.85572 7.57539V8.83181H5.85937C5.73195 8.83181 5.60974 8.88243 5.51963 8.97254C5.42953 9.06264 5.37891 9.18485 5.37891 9.31228C5.37891 9.43971 5.42953 9.56192 5.51963 9.65202C5.60974 9.74213 5.73195 9.79275 5.85937 9.79275ZM31.9344 8.55154H36.8592C37.061 8.55154 37.2545 8.63169 37.3971 8.77436C37.5398 8.91702 37.62 9.11052 37.62 9.31228C37.62 9.51404 37.5398 9.70754 37.3971 9.85021C37.2545 9.99287 37.061 10.073 36.8592 10.073H31.9344V8.55154ZM30.4129 8.55154H30.9735V10.073H30.4129V8.55154ZM24.8323 8.05586H25.9037V10.5687H24.8323V8.05586ZM20.5551 8.42421C20.7605 8.21841 21.031 8.09022 21.3203 8.0615C21.6097 8.03277 21.9001 8.10528 22.142 8.26667C22.3839 8.42805 22.5623 8.66834 22.6469 8.94656C22.7315 9.22478 22.717 9.52372 22.6058 9.79244C22.4947 10.0612 22.2938 10.283 22.0374 10.4202C21.781 10.5574 21.485 10.6014 21.1997 10.5448C20.9145 10.4881 20.6577 10.3343 20.4732 10.1096C20.2887 9.88486 20.1878 9.60308 20.1878 9.31228C20.1874 9.14735 20.2197 8.98399 20.2828 8.83158C20.3458 8.67917 20.4383 8.54073 20.5551 8.42421ZM16.9046 8.05586H17.976V10.5687H16.9046V8.05586ZM12.5473 8.42421C12.7527 8.21841 13.0232 8.09022 13.3125 8.0615C13.6019 8.03277 13.8923 8.10528 14.1342 8.26667C14.3761 8.42805 14.5545 8.66834 14.6391 8.94656C14.7237 9.22478 14.7092 9.52372 14.598 9.79244C14.4869 10.0612 14.286 10.283 14.0296 10.4202C13.7732 10.5574 13.4771 10.6014 13.1919 10.5448C12.9067 10.4881 12.6499 10.3343 12.4654 10.1096C12.2809 9.88486 12.18 9.60308 12.1799 9.31228C12.1796 9.14735 12.2119 8.98399 12.2749 8.83158C12.338 8.67917 12.4305 8.54073 12.5473 8.42421ZM8.81666 8.05586H10.0483V10.5687H8.81666V8.05586Z" fill="#CC2A10"/>
<path d="M6.33109 19.4091C6.27203 19.2964 6.17068 19.2117 6.04928 19.1737C5.92788 19.1356 5.79633 19.1472 5.6835 19.206C5.57067 19.2648 5.48576 19.366 5.4474 19.4873C5.40905 19.6086 5.42037 19.7401 5.4789 19.8531C6.48975 21.7901 7.99028 23.4285 9.83114 24.6053C9.88431 24.6393 9.94365 24.6624 10.0058 24.6735C10.0679 24.6845 10.1316 24.6832 10.1932 24.6696C10.2548 24.6561 10.3132 24.6305 10.3649 24.5944C10.4167 24.5583 10.4608 24.5123 10.4947 24.4591C10.5287 24.406 10.5519 24.3466 10.5629 24.2845C10.574 24.2224 10.5727 24.1587 10.5591 24.0971C10.5455 24.0354 10.52 23.9771 10.4839 23.9254C10.4477 23.8736 10.4018 23.8295 10.3486 23.7955C8.64936 22.7093 7.26423 21.197 6.33109 19.4091Z" fill="#CC2A10"/>
<path d="M5.77363 18.1617C5.67441 17.898 5.58577 17.6342 5.51009 17.3774C5.4728 17.2567 5.38945 17.1555 5.27809 17.0958C5.16672 17.0361 5.03632 17.0226 4.91512 17.0584C4.79392 17.0941 4.69168 17.1762 4.63054 17.2868C4.5694 17.3973 4.55429 17.5276 4.58847 17.6492C4.67071 17.9284 4.76689 18.2146 4.87427 18.5001C4.89621 18.5595 4.92969 18.614 4.97277 18.6605C5.01586 18.7069 5.0677 18.7444 5.12532 18.7707C5.18293 18.797 5.24519 18.8117 5.3085 18.8139C5.37181 18.8161 5.43492 18.8057 5.49421 18.7834C5.5535 18.7611 5.60779 18.7273 5.65396 18.6839C5.70013 18.6405 5.73727 18.5885 5.76324 18.5307C5.78921 18.4729 5.8035 18.4106 5.80528 18.3472C5.80706 18.2839 5.79631 18.2209 5.77363 18.1617Z" fill="#CC2A10"/>
<path d="M2.53562 15.9456C2.5361 15.9493 2.53642 15.9531 2.5369 15.9568C2.85935 18.3877 3.80913 20.6927 5.2928 22.6452C6.77647 24.5976 8.7429 26.1301 10.9986 27.0919L4.93893 39.7748C4.91031 39.8319 4.89336 39.8941 4.88907 39.9578C4.88477 40.0215 4.89321 40.0854 4.91391 40.1458C4.9346 40.2062 4.96712 40.2619 5.00958 40.3096C5.05203 40.3573 5.10357 40.396 5.16117 40.4236C5.21877 40.4511 5.28129 40.4669 5.34506 40.47C5.40883 40.4731 5.47259 40.4635 5.5326 40.4417C5.5926 40.4199 5.64766 40.3863 5.69455 40.343C5.74144 40.2996 5.77923 40.2474 5.80569 40.1893L6.73596 38.2429H23.9323C24.0634 38.8107 24.3642 39.3251 24.7948 39.7178C25.2254 40.1104 25.7654 40.3626 26.3428 40.4408C26.9202 40.5191 27.5078 40.4197 28.0274 40.1558C28.5469 39.8919 28.9738 39.4761 29.2513 38.9637C29.5287 38.4513 29.6436 37.8665 29.5805 37.2872C29.5175 36.7079 29.2796 36.1615 28.8984 35.7208C28.5173 35.28 28.0109 34.9657 27.4468 34.8197C26.8827 34.6738 26.2874 34.7031 25.7403 34.9037L22.0167 27.0843C23.7598 26.3411 25.3352 25.2541 26.6486 23.8882C27.962 22.5223 28.9866 20.9055 29.661 19.1347H32.6223C32.7497 19.1347 32.8719 19.0841 32.962 18.9939C33.0521 18.9038 33.1027 18.7816 33.1027 18.6542V15.572C33.1027 15.4446 33.0521 15.3224 32.962 15.2323C32.8719 15.1422 32.7497 15.0915 32.6223 15.0915H30.5466C30.5682 14.7734 30.5803 14.4528 30.5803 14.133C30.5803 14.0056 30.5296 13.8834 30.4395 13.7933C30.3494 13.7031 30.2272 13.6525 30.0998 13.6525H2.89966C2.77223 13.6525 2.65002 13.7031 2.55992 13.7933C2.46981 13.8834 2.41919 14.0056 2.41919 14.133C2.41915 14.7381 2.45794 15.3426 2.5353 15.9428L2.53562 15.9456ZM30.4488 16.0525H32.1418V18.1737H29.9877C30.1961 17.4797 30.3503 16.7704 30.4488 16.0525ZM25.7557 35.954H25.7562C26.1137 35.743 26.5303 35.6544 26.9427 35.7018C27.3551 35.7491 27.7407 35.9298 28.0411 36.2164C28.3414 36.5029 28.54 36.8796 28.6067 37.2894C28.6734 37.6991 28.6046 38.1194 28.4106 38.4864C28.2167 38.8534 27.9082 39.1471 27.5322 39.3228C27.1561 39.4985 26.7329 39.5467 26.327 39.46C25.921 39.3733 25.5545 39.1564 25.283 38.8424C25.0115 38.5284 24.85 38.1343 24.8229 37.7201C24.82 37.6824 24.8186 37.642 24.8186 37.5962C24.8194 37.2648 24.9061 36.9392 25.0703 36.6513C25.2346 36.3635 25.4707 36.1232 25.7557 35.954ZM24.9043 35.3828C24.3287 35.8589 23.9603 36.5397 23.8766 37.282H7.19505L11.8977 27.4389C14.8846 28.4733 18.133 28.4712 21.1186 27.4328L24.9043 35.3828ZM29.6106 14.6135C29.6007 14.8822 29.5814 15.15 29.5553 15.4142H11.3311C11.2037 15.4142 11.0814 15.4649 10.9913 15.555C10.9012 15.6451 10.8506 15.7673 10.8506 15.8947C10.8506 16.0221 10.9012 16.1444 10.9913 16.2345C11.0814 16.3246 11.2037 16.3752 11.3311 16.3752H29.4263C29.0955 18.2834 28.3462 20.0947 27.2323 21.679C26.1185 23.2634 24.6676 24.5814 22.9839 25.5385C21.3003 26.4956 19.4255 27.068 17.4944 27.2146C15.5633 27.3612 13.6236 27.0783 11.8148 26.3864C9.69385 25.5709 7.82016 24.2202 6.37599 22.4659C4.93182 20.7115 3.96635 18.6133 3.57352 16.3752H8.60843C8.73586 16.3752 8.85807 16.3246 8.94817 16.2345C9.03828 16.1444 9.0889 16.0221 9.0889 15.8947C9.0889 15.7673 9.03828 15.6451 8.94817 15.555C8.85807 15.4649 8.73586 15.4142 8.60843 15.4142H3.44339C3.4176 15.149 3.39895 14.8817 3.38926 14.6135H29.6106Z" fill="#CC2A10"/>
</svg>
