<svg width="20" height="19" viewBox="0 0 20 19" fill="none" xmlns="http://www.w3.org/2000/svg">
<path d="M9.5 0C4.2599 0 0 4.25954 0 9.5C0 11.1088 0.398333 12.687 1.17991 14.0817L0.367802 17.0543C0.229876 17.5292 0.367802 18.0194 0.72016 18.3718C1.07252 18.7241 1.56316 18.8624 2.038 18.7396L5.13307 17.9275C6.48144 18.6322 7.98317 19 9.51544 19C14.7555 19 19.0154 14.7405 19.0154 9.5C19.0154 6.95663 18.0349 4.58136 16.2422 2.78869C14.4341 0.996011 12.0437 0 9.5 0ZM9.5 0.919505C11.7984 0.919505 13.9589 1.80812 15.5677 3.43234C17.1919 5.05656 18.0959 7.21704 18.0809 9.5C18.0809 14.2347 14.2347 18.0809 9.5 18.0809C8.07513 18.0809 6.64989 17.7127 5.39347 17.0385C5.33241 17.008 5.25591 16.9774 5.1794 16.9774C5.13343 16.9774 5.10254 16.9774 5.05656 16.9929L1.79268 17.851C1.5628 17.912 1.40979 17.7896 1.34873 17.7281C1.28731 17.6667 1.16447 17.5137 1.22589 17.2842L2.08397 14.1273C2.1145 14.0049 2.09942 13.8824 2.038 13.775C1.30275 12.488 0.919505 11.0017 0.919505 9.5C0.919505 4.76526 4.76526 0.919505 9.5 0.919505ZM9.5 2.2984C5.5314 2.2984 2.2984 5.51631 2.2984 9.5C2.2984 10.7719 2.63568 12.0128 3.26389 13.1008C3.50921 13.53 3.57027 14.0354 3.44779 14.5102L3.00312 16.1194L4.71965 15.6751C4.87266 15.6291 5.02603 15.6136 5.1794 15.6136C5.48578 15.6136 5.79217 15.6905 6.05257 15.8435C7.10964 16.3952 8.28956 16.7016 9.5 16.7016C13.4686 16.7016 16.7016 13.4686 16.7016 9.5C16.7016 7.5694 15.9509 5.76128 14.5871 4.39746C13.2387 3.04909 11.4306 2.2984 9.5 2.2984ZM6.29753 5.31697H6.72676C6.89521 5.31697 7.06367 5.33205 7.23213 5.69986C7.43147 6.14416 7.87578 7.26302 7.92175 7.37005C7.98317 7.47745 8.01406 7.61537 7.9372 7.76838C7.86069 7.92175 7.83016 8.01371 7.70732 8.15163C7.60029 8.28956 7.462 8.44293 7.37005 8.54996C7.26302 8.65736 7.14053 8.77984 7.27846 9.00972C7.41639 9.23959 7.86033 9.9752 8.53452 10.5725C9.3926 11.3387 10.1282 11.584 10.3581 11.6914C10.588 11.7984 10.7108 11.7833 10.8487 11.6299C10.9867 11.4766 11.4155 10.9708 11.5685 10.741C11.7219 10.5111 11.8753 10.5574 12.0743 10.6339C12.289 10.7104 13.3921 11.2621 13.622 11.3692C13.8518 11.4766 14.0049 11.538 14.0508 11.6299C14.1123 11.7524 14.1123 12.1967 13.9284 12.733C13.7445 13.2542 12.8253 13.775 12.3961 13.8055C11.9823 13.8364 11.5991 13.9898 9.6839 13.2387C7.3855 12.3347 5.93009 9.97484 5.8227 9.82183C5.7153 9.66846 4.90319 8.59594 4.90319 7.47745C4.90319 6.35895 5.48542 5.8227 5.69986 5.59282C5.91465 5.36294 6.14452 5.31697 6.29753 5.31697Z" fill="#6DC200"/>
</svg>
