<svg width="76" height="78" viewBox="0 0 76 78" fill="none" xmlns="http://www.w3.org/2000/svg">
<rect width="75.5536" height="77.4663" rx="10" fill="url(#paint0_linear)"/>
<g clip-path="url(#clip0)">
<path d="M31.3507 28.3279C30.9538 28.3279 30.6319 28.6497 30.6319 29.0467C30.6319 29.9186 29.9225 30.628 29.0506 30.628C28.1786 30.628 27.4693 29.9186 27.4693 29.0467C27.4693 28.1747 28.1786 27.4654 29.0506 27.4654C29.4475 27.4654 29.7694 27.1436 29.7694 26.7465C29.7694 26.3495 29.4476 26.0277 29.0506 26.0277C27.386 26.0277 26.0317 27.3821 26.0317 29.0466C26.0317 30.7111 27.386 32.0655 29.0506 32.0655C30.7151 32.0655 32.0694 30.7111 32.0694 29.0466C32.0695 28.6497 31.7477 28.3279 31.3507 28.3279Z" fill="white"/>
<path d="M31.3507 36.7615C30.9538 36.7615 30.6319 37.0833 30.6319 37.4803C30.6319 38.3523 29.9225 39.0616 29.0506 39.0616C28.1786 39.0616 27.4693 38.3523 27.4693 37.4803C27.4693 36.6084 28.1786 35.899 29.0506 35.899C29.4475 35.899 29.7694 35.5772 29.7694 35.1802C29.7694 34.7832 29.4476 34.4614 29.0506 34.4614C27.386 34.4614 26.0317 35.8157 26.0317 37.4802C26.0317 39.1448 27.386 40.4991 29.0506 40.4991C30.7151 40.4991 32.0694 39.1448 32.0694 37.4802C32.0695 37.0834 31.7477 36.7615 31.3507 36.7615Z" fill="white"/>
<path d="M39.7843 38.295H34.4175C34.0205 38.295 33.6986 38.6167 33.6986 39.0138C33.6986 39.4108 34.0204 39.7326 34.4175 39.7326H39.7843C40.1813 39.7326 40.5031 39.4108 40.5031 39.0138C40.5031 38.6167 40.1813 38.295 39.7843 38.295Z" fill="white"/>
<path d="M39.7843 35.2281H34.4175C34.0205 35.2281 33.6986 35.5499 33.6986 35.947C33.6986 36.344 34.0204 36.6658 34.4175 36.6658H39.7843C40.1813 36.6658 40.5031 36.344 40.5031 35.947C40.5031 35.5499 40.1813 35.2281 39.7843 35.2281Z" fill="white"/>
<path d="M38.251 46.7286H34.4175C34.0205 46.7286 33.6986 47.0504 33.6986 47.4474C33.6986 47.8444 34.0204 48.1662 34.4175 48.1662H38.251C38.6479 48.1662 38.9698 47.8444 38.9698 47.4474C38.9698 47.0504 38.6479 46.7286 38.251 46.7286Z" fill="white"/>
<path d="M39.7843 43.6618H34.4175C34.0205 43.6618 33.6986 43.9836 33.6986 44.3806C33.6986 44.7777 34.0204 45.0995 34.4175 45.0995H39.7843C40.1813 45.0995 40.5031 44.7777 40.5031 44.3806C40.5031 43.9836 40.1813 43.6618 39.7843 43.6618Z" fill="white"/>
<path d="M46.6847 29.8613H34.4175C34.0205 29.8613 33.6986 30.1831 33.6986 30.5801C33.6986 30.9771 34.0204 31.2989 34.4175 31.2989H46.6846C47.0815 31.2989 47.4034 30.9771 47.4034 30.5801C47.4034 30.1831 47.0816 29.8613 46.6847 29.8613Z" fill="white"/>
<path d="M43.6178 26.7944H34.4175C34.0205 26.7944 33.6986 27.1162 33.6986 27.5132C33.6986 27.9103 34.0204 28.232 34.4175 28.232H43.6178C44.0148 28.232 44.3366 27.9103 44.3366 27.5132C44.3366 27.1162 44.0148 26.7944 43.6178 26.7944Z" fill="white"/>
<path d="M31.3507 45.1952C30.9538 45.1952 30.6319 45.517 30.6319 45.914C30.6319 46.7859 29.9225 47.4953 29.0506 47.4953C28.1786 47.4953 27.4693 46.7859 27.4693 45.914C27.4693 45.0421 28.1786 44.3327 29.0506 44.3327C29.4475 44.3327 29.7694 44.0109 29.7694 43.6139C29.7694 43.2168 29.4476 42.8951 29.0506 42.8951C27.386 42.8951 26.0317 44.2494 26.0317 45.9139C26.0317 47.5784 27.386 48.9328 29.0506 48.9328C30.7151 48.9328 32.0694 47.5784 32.0694 45.9139C32.0695 45.517 31.7477 45.1952 31.3507 45.1952Z" fill="white"/>
<path d="M49.7514 19.1275H23.6837C22.4419 19.1275 21.4315 20.1378 21.4315 21.3797V53.5809C21.4315 54.8228 22.4418 55.8331 23.6837 55.8331H36.7176C37.1145 55.8331 37.4364 55.5113 37.4364 55.1143C37.4364 54.7174 37.1146 54.3955 36.7176 54.3955H23.6837C23.2345 54.3955 22.8691 54.03 22.8691 53.5808V21.3797C22.8691 20.9305 23.2345 20.565 23.6837 20.565H49.7514C50.2006 20.565 50.5661 20.9305 50.5661 21.3797V45.1474C50.5661 45.5443 50.8878 45.8662 51.2849 45.8662C51.6818 45.8662 52.0037 45.5444 52.0037 45.1474V21.3797C52.0036 20.1378 50.9933 19.1275 49.7514 19.1275Z" fill="white"/>
<path d="M56.5377 48.2755C55.8696 48.2089 55.2019 48.3982 54.6735 48.7995C54.2525 48.0931 53.5347 47.592 52.7042 47.5088C52.036 47.4423 51.3683 47.6316 50.84 48.0328C50.419 47.3264 49.7012 46.8253 48.8707 46.7421C48.3605 46.6912 47.8511 46.7895 47.4034 47.0173V37.8637C47.4034 37.1205 47.0873 36.4081 46.5358 35.9091C45.9848 35.4106 45.2423 35.1673 44.4986 35.2417C43.1717 35.3746 42.1324 36.5743 42.1324 37.9731V47.1498L40.0194 49.2627C38.8966 50.3856 38.4434 51.9786 38.8071 53.5244L40.4113 60.3419C41.0612 63.1044 43.4972 65.0337 46.3351 65.0337H52.8181C56.1738 65.0337 58.9038 62.3037 58.9038 58.948V51.0071C58.9039 49.6081 57.8646 48.4084 56.5377 48.2755ZM57.4663 58.9478C57.4663 61.5108 55.3812 63.5959 52.8182 63.5959H46.3352C44.1677 63.5959 42.307 62.1223 41.8106 60.0124L40.2065 53.1949C39.9576 52.1373 40.2677 51.0472 41.0359 50.279L42.1324 49.1826V51.6642C42.1324 52.0611 42.4542 52.383 42.8512 52.383C43.2482 52.383 43.57 52.0612 43.57 51.6642V37.973C43.57 37.3037 44.0408 36.7322 44.642 36.6721C44.9872 36.6374 45.3175 36.7452 45.5714 36.9751C45.8222 37.202 45.966 37.526 45.966 37.8638V50.5143C45.966 50.9112 46.2878 51.2331 46.6848 51.2331C47.0818 51.2331 47.4036 50.9113 47.4036 50.5143V49.3642C47.4036 49.0264 47.5473 48.7025 47.7982 48.4755C48.0523 48.2456 48.3823 48.1378 48.7276 48.1726C49.3287 48.2327 49.7996 48.8042 49.7996 49.4735V51.2808C49.7996 51.6777 50.1214 51.9996 50.5184 51.9996C50.9153 51.9996 51.2372 51.6778 51.2372 51.2808V50.1307C51.2372 49.7929 51.3809 49.469 51.6318 49.242C51.8859 49.0121 52.216 48.9044 52.5612 48.9391C53.1623 48.9992 53.6332 49.5707 53.6332 50.24V52.0474C53.6332 52.4443 53.955 52.7662 54.352 52.7662C54.7489 52.7662 55.0708 52.4444 55.0708 52.0474V50.8973C55.0708 50.5595 55.2145 50.2356 55.4654 50.0086C55.7195 49.7788 56.0493 49.6709 56.3948 49.7057C56.9959 49.7658 57.4668 50.3373 57.4668 51.0066V58.9478H57.4663Z" fill="white"/>
</g>
<defs>
<linearGradient id="paint0_linear" x1="-1.05004e-06" y1="4.05776" x2="75.9744" y2="77.0282" gradientUnits="userSpaceOnUse">
<stop stop-color="#C20000"/>
<stop offset="0.412274" stop-color="#DC3D3D"/>
<stop offset="0.846333" stop-color="#E85555"/>
</linearGradient>
<clipPath id="clip0">
<rect width="45.906" height="45.906" fill="white" transform="translate(17.2147 19.1275)"/>
</clipPath>
</defs>
</svg>
