<svg width="76" height="78" viewBox="0 0 76 78" fill="none" xmlns="http://www.w3.org/2000/svg">
<rect width="75.5536" height="77.4663" rx="10" fill="url(#paint0_linear)"/>
<g clip-path="url(#clip0)">
<path d="M61.5367 32.6439C61.5367 31.0743 60.2595 29.7971 58.6898 29.7971C57.9298 29.7971 57.2143 30.0933 56.6771 30.6312L54.8168 32.4914L52.75 34.5582V28.4916C54.8758 28.1853 56.5158 26.3571 56.5158 24.1485C56.5158 21.7259 54.545 19.7551 52.1224 19.7551H27.0176C24.595 19.7551 22.6242 21.7259 22.6242 24.1485V55.5295C22.6242 55.876 22.9054 56.1571 23.2519 56.1571H26.39V58.04C26.39 58.3864 26.6711 58.6676 27.0176 58.6676H52.1224C52.4689 58.6676 52.75 58.3864 52.75 58.04V42.6093L58.8424 36.517L59.4869 35.8724C59.1618 37.4917 58.3691 38.9804 57.1754 40.1748L54.1898 43.1604L55.0773 44.0478L58.0628 41.0622C59.844 39.281 60.8401 36.9287 60.8984 34.4189C61.3045 33.9155 61.5367 33.3004 61.5367 32.6439ZM57.5645 31.5186C57.8651 31.218 58.2649 31.0523 58.6898 31.0523C59.5673 31.0523 60.2815 31.7665 60.2815 32.6439C60.2815 33.0688 60.1158 33.4686 59.8152 33.7693L58.3986 35.1858L56.148 32.9352L57.5645 31.5186ZM55.2605 33.8226L55.9421 34.5042L48.0429 42.4035L47.3613 41.7219L55.2605 33.8226ZM40.3338 50.3849L41.6248 47.8022L43.5315 49.709L40.9489 51L40.3338 50.3849ZM42.3403 46.7428L46.4738 42.6093L48.7245 44.86L44.591 48.9935L42.3403 46.7428ZM52.1224 21.0104C53.8528 21.0104 55.2605 22.4181 55.2605 24.1485C55.2605 25.8788 53.8528 27.2866 52.1224 27.2866H30.0866C30.9026 26.4882 31.4109 25.3774 31.4109 24.1485C31.4109 22.9196 30.9026 21.8087 30.0866 21.0104H52.1224ZM27.6452 27.2232V25.4037C27.6452 25.0579 27.927 24.7761 28.2728 24.7761H30.0923C29.8419 26.0037 28.8728 26.9728 27.6452 27.2232ZM23.8795 54.9019V24.1485C23.8795 22.4181 25.2872 21.0104 27.0176 21.0104C28.5327 21.0104 29.8005 22.0905 30.0923 23.5209H28.2728C27.2347 23.5209 26.39 24.3656 26.39 25.4037V54.9019H23.8795ZM51.4948 57.4124H27.6452V28.5418H51.4948V35.8134L48.7245 38.5837H30.1557V39.839H47.4692L46.214 41.0942H30.1557V42.3495H44.9587L41.0091 46.2991C40.9602 46.348 40.9282 46.4064 40.8987 46.4654L40.8918 46.4616L39.0089 50.2274C38.8884 50.469 38.9355 50.7608 39.1269 50.9516L39.3102 51.1362L37.871 52.5753L38.7585 53.4628L40.1976 52.0236L40.3815 52.2075C40.502 52.328 40.6627 52.3914 40.8252 52.3914C40.92 52.3914 41.0167 52.3694 41.1058 52.3255L44.8715 50.4426L44.8677 50.4357C44.9267 50.4062 44.9851 50.3742 45.0341 50.3253L50.055 45.3043L51.4948 43.8646V57.4124ZM49.6119 43.9725L48.9303 43.2909L56.8296 35.3917L57.5112 36.0733L53.5615 40.0229L49.6119 43.9725Z" fill="white"/>
<path d="M30.1557 31.0523H48.9843V32.3075H30.1557V31.0523Z" fill="white"/>
<path d="M30.1557 33.5628H48.9843V34.818H30.1557V33.5628Z" fill="white"/>
<path d="M30.1557 36.0733H48.9843V37.3285H30.1557V36.0733Z" fill="white"/>
<path d="M30.1557 51.1362H37.0595V52.3914H30.1557V51.1362Z" fill="white"/>
<path d="M30.1557 53.6466H48.9843V54.9019H30.1557V53.6466Z" fill="white"/>
</g>
<defs>
<linearGradient id="paint0_linear" x1="-1.05004e-06" y1="4.05776" x2="75.9744" y2="77.0282" gradientUnits="userSpaceOnUse">
<stop stop-color="#C20000"/>
<stop offset="0.412274" stop-color="#DC3D3D"/>
<stop offset="0.846333" stop-color="#E85555"/>
</linearGradient>
<clipPath id="clip0">
<rect width="40.1677" height="40.1677" fill="white" transform="translate(21.9966 19.1275)"/>
</clipPath>
</defs>
</svg>
