<svg width="94" height="69" viewBox="0 0 94 69" fill="none" xmlns="http://www.w3.org/2000/svg">
<path d="M47.0072 58.9229C44.3562 58.9229 42.1735 61.1004 42.1735 63.7445C42.1735 66.3886 44.3562 68.5644 47.0072 68.5644C49.6564 68.5644 51.8409 66.3886 51.8409 63.7445C51.8409 61.1004 49.6564 58.9229 47.0072 58.9229ZM47.0072 65.144C46.3823 65.144 45.7592 64.5226 45.7592 63.8994C45.7592 63.278 46.3823 62.6548 47.0072 62.6548C47.6303 62.6548 48.2535 63.278 48.2535 63.8994C48.2535 64.5226 47.6303 65.144 47.0072 65.144Z" fill="#C20000"/>
<path d="M26.5811 44.9261C25.8013 45.7041 25.8013 46.7921 26.5811 47.5701C26.8926 47.8817 27.3609 48.0366 27.8274 48.0366C28.2956 48.0366 28.7638 47.8817 29.0754 47.5701C39.3659 37.3071 54.8034 37.3071 65.094 47.5701C65.8737 48.3482 66.9651 48.3482 67.7449 47.5701C68.5247 46.7921 68.5247 45.7041 67.7449 44.9261C56.0497 33.2636 38.2745 33.2636 26.5811 44.9261Z" fill="#C20000"/>
<path d="M0.696345 18.1774C-0.083449 18.8006 -0.238375 20.0451 0.384772 20.8215C0.696345 21.288 1.32121 21.4446 1.78771 21.4446C2.25593 21.4446 2.56751 21.288 2.87908 20.9781C50.2813 -17.5898 89.2624 19.2671 90.822 20.8215C91.6018 21.5996 92.6932 21.4446 93.473 20.8215C94.251 20.0451 94.0961 18.9555 93.473 18.1774C93.1597 17.8676 50.5929 -22.5664 0.696345 18.1774Z" fill="#C20000"/>
<path d="M12.7031 31.2409C11.9233 32.0189 11.9233 33.1069 12.7031 33.8849C13.0147 34.1965 13.4829 34.3514 13.9511 34.3514C14.4176 34.3514 14.8859 34.1965 15.1974 33.8849C32.1945 16.9343 61.9748 16.7776 78.9719 33.73C79.75 34.5064 80.843 34.5064 81.6211 33.73C82.4009 32.9519 82.4009 31.864 81.6211 31.0859C63.2228 12.7341 31.1015 12.8907 12.7031 31.2409Z" fill="#C20000"/>
</svg>
